<?xml version="1.0" encoding="UTF-8"?>
<svg width="15.49" height="32.694" 
viewBox="0 0 15.49 32.694" 
preserveAspectRatio="xMinYMin"
xmlns:xlink="http://www.w3.org/1999/xlink"
xmlns="http://www.w3.org/2000/svg">
<!-- Generated by PQINA - https://pqina.nl/ -->
<title></title>
<g transform="rotate(NaN 7.745 16.347) translate(7.745 16.347) scale(NaN) translate(-7.745 -16.347) translate(0 0)">
<g transform="scale(1 1) translate(0 0)">
<svg xmlns="http://www.w3.org/2000/svg" width="15.49" height="32.694" viewBox="0 0 15.49 32.694" style="overflow: visible;">
  <path id="fi-rr-angle-right" d="M7.366,32.745A1.364,1.364,0,0,1,6.4,30.412L17.544,19.266a4.093,4.093,0,0,0,0-5.785L6.4,2.334A1.37,1.37,0,0,1,8.335.4L19.482,11.544a6.822,6.822,0,0,1,0,9.659L8.335,32.349A1.364,1.364,0,0,1,7.366,32.745Z" transform="translate(-5.996 -0.051)" fill="#222"></path>
</svg>
</g>
</g>
</svg>