<?xml version="1.0" encoding="UTF-8"?>
<svg width="32.747" height="15.492" 
viewBox="0 0 32.747 15.492" 
preserveAspectRatio="xMinYMin"
xmlns:xlink="http://www.w3.org/1999/xlink"
xmlns="http://www.w3.org/2000/svg">
<!-- Generated by PQINA - https://pqina.nl/ -->
<title></title>
<g transform="rotate(NaN 16.3735 7.746) translate(16.3735 7.746) scale(NaN) translate(-16.3735 -7.746) translate(0 0)">
<g transform="scale(1 1) translate(0 0)">
<svg xmlns="http://www.w3.org/2000/svg" width="32.747" height="15.492" viewBox="0 0 32.747 15.492" style="overflow: visible;">
  <g id="fi-rr-angle-left-dark" transform="translate(0 15.492) rotate(-90)">
    <g id="Grupo_2" data-name="Grupo 2">
      <g id="Grupo_1" data-name="Grupo 1">
        <path id="fi-rr-angle-left" d="M20.94,32.745a1.364,1.364,0,0,1-.969-.4L8.825,21.2a6.822,6.822,0,0,1,0-9.659L19.972.4a1.37,1.37,0,1,1,1.937,1.937L10.762,13.481a4.093,4.093,0,0,0,0,5.785L21.909,30.412a1.364,1.364,0,0,1-.969,2.333Z" transform="translate(-6.821 0.001)" fill="#57595a"></path>
      </g>
    </g>
  </g>
</svg>
</g>
</g>
</svg>