<?xml version="1.0" encoding="UTF-8"?>
<svg width="64.92" height="29.18" 
viewBox="0 0 64.92 29.18" 
preserveAspectRatio="xMinYMin"
xmlns:xlink="http://www.w3.org/1999/xlink"
xmlns="http://www.w3.org/2000/svg">
<!-- Generated by PQINA - https://pqina.nl/ -->
<title>arrow_right_white</title>
<g transform="rotate(NaN 32.46 14.59) translate(32.46 14.59) scale(NaN) translate(-32.46 -14.59) translate(0 0)">
<g transform="scale(1 1) translate(0 0)">
<svg xmlns="http://www.w3.org/2000/svg" viewBox="0 0 64.92 29.18" width="64.92" height="29.18" style="overflow: visible;"><defs><style>.cls-1{fill:#fff;}</style></defs><title>arrow_right_white</title><g id="Capa_2" data-name="Capa 2"><g id="Capa_1-2" data-name="Capa 1"><path class="cls-1" d="M43.18,28.89V19.4a1,1,0,0,1,1-1h0a1,1,0,0,1,1,1v5.69a.29.29,0,0,0,.44.24L61.25,14.59a.29.29,0,0,0,0-.47L46.09,3.83a.28.28,0,0,0-.44.23V15a.28.28,0,0,1-.28.28H1a1,1,0,0,1-1-1H0a1,1,0,0,1,1-1H43.37a.28.28,0,0,0,.28-.28V.28a.28.28,0,0,1,.44-.23l20.7,14.06a.28.28,0,0,1,0,.47L43.62,29.13A.28.28,0,0,1,43.18,28.89Z"></path></g></g></svg>
</g>
</g>
</svg>