<?xml version="1.0" standalone="no"?>
<!DOCTYPE svg PUBLIC "-//W3C//DTD SVG 1.1//EN" "http://www.w3.org/Graphics/SVG/1.1/DTD/svg11.dtd" >
<svg xmlns="http://www.w3.org/2000/svg">
<metadata>Generated by IcoMoon</metadata>
<defs>
<font id="icomoon" horiz-adv-x="1024">
<font-face units-per-em="1024" ascent="960" descent="-64" />
<missing-glyph horiz-adv-x="1024" />
<glyph unicode="&#x20;" horiz-adv-x="512" d="" />
<glyph unicode="&#x61;" glyph-name="percent" d="M390.451 483.062c5.775 8.765 8.704 20.46 8.704 35 0 14.623-2.929 26.194-8.704 34.816-5.816 8.581-13.517 12.943-23.142 12.943-9.585 0-17.326-4.342-23.060-12.943-5.775-8.622-8.704-20.193-8.704-34.816 0-14.541 2.929-26.235 8.704-35 5.734-8.786 13.496-13.23 23.060-13.23 9.646 0 17.347 4.444 23.142 13.23zM657.142 426.619c-9.626 0-17.306-4.321-23.122-12.923-5.775-8.602-8.684-20.214-8.684-34.796s2.908-26.276 8.684-35.062c5.816-8.786 13.496-13.148 23.122-13.148s17.306 4.362 23.142 13.148c5.775 8.786 8.724 20.48 8.724 35.062s-2.949 26.194-8.724 34.796c-5.837 8.602-13.517 12.923-23.142 12.923zM878.162 379.924l80.302 41.759-74.424 51.507 67.359 60.375-84.849 31.396 50.156 75.284-89.989 9.257 29.942 85.402-89.498-13.373 7.721 90.132-83.354-35.226-14.868 89.252-71.987-54.866-36.618 82.78-56.074-71.045-56.054 71.045-36.618-82.78-72.028 54.866-14.868-89.231-83.374 35.226 7.721-90.132-89.436 13.353 29.88-85.402-89.989-9.257 50.196-75.284-84.869-31.396 67.359-60.375-74.363-51.507 80.302-41.759-59.29-68.383 88.105-20.5-40.407-80.957 90.501 2.068-19.005-88.494 87.060 24.556 3.645-90.419 78.295 45.404 25.969-86.692 64.512 63.488 46.756-77.537 46.756 77.537 64.471-63.488 26.030 86.692 78.254-45.404 3.666 90.419 87.060-24.556-18.985 88.494 90.46-2.068-40.407 80.957 88.105 20.5-59.228 68.383zM293.274 440.054c-18.555 19.517-27.853 45.548-27.853 78.029 0 32.174 9.298 57.958 27.853 77.332s43.274 29.061 74.035 29.061c30.843 0 55.48-9.626 73.83-28.836 18.412-19.21 27.607-45.076 27.607-77.558s-9.175-58.491-27.607-78.029c-18.35-19.579-42.988-29.348-73.83-29.348-30.761 0-55.48 9.769-74.035 29.348zM427.991 274.043h-74.056l242.074 348.467h74.076l-242.094-348.467zM730.972 300.831c-18.391-19.558-42.988-29.348-73.83-29.348-30.761 0-55.521 9.789-74.076 29.348-18.493 19.558-27.832 45.609-27.832 78.070 0 32.154 9.339 57.917 27.832 77.292 18.555 19.415 43.315 29.061 74.076 29.061 30.863 0 55.439-9.646 73.83-28.836 18.412-19.21 27.566-45.076 27.566-77.537s-9.134-58.47-27.566-78.049z" />
<glyph unicode="&#x62;" glyph-name="bed" d="M153.19 565.043c0 48.476 39.444 87.962 87.941 87.962h197.427c30.679 0 57.692-15.79 73.441-39.629 15.749 23.839 42.762 39.629 73.421 39.629h197.448c48.517 0 87.941-39.485 87.941-87.962v-4.055h22.016v85.77c0 53.207-43.274 96.502-96.522 96.502h-568.627c-53.207 0-96.481-43.295-96.481-96.502v-85.77h21.996v4.055zM939.622 519.926h-855.265c-20.357 0-36.946-16.589-36.946-36.987v-214.569c0-20.337 16.589-36.966 36.946-36.966h15.401l-18.166-51.282c-3.809-10.691 1.802-22.426 12.472-26.214 2.273-0.819 4.588-1.188 6.861-1.188 8.458 0 16.384 5.243 19.354 13.66l23.040 65.044h737.341l23.020-65.044c2.99-8.417 10.895-13.66 19.374-13.66 2.253 0 4.567 0.369 6.84 1.188 10.691 3.809 16.282 15.524 12.493 26.214l-18.166 51.302h15.36c20.378 0 36.966 16.63 36.966 36.966v214.569c0.041 20.378-16.548 36.966-36.925 36.966v0zM585.421 611.922c-25.846 0-46.858-21.012-46.858-46.879v-4.055h291.164v4.055c0 25.866-21.012 46.879-46.858 46.879h-197.448zM241.132 611.922c-25.846 0-46.858-21.012-46.858-46.879v-4.055h291.164v4.055c0 25.866-21.012 46.879-46.879 46.879h-197.427z" />
<glyph unicode="&#x63;" glyph-name="dots" d="M605.327 755.2c0-50.899-41.261-92.16-92.16-92.16s-92.16 41.261-92.16 92.16c0 50.899 41.261 92.16 92.16 92.16s92.16-41.261 92.16-92.16zM605.327 448c0-50.899-41.261-92.16-92.16-92.16s-92.16 41.261-92.16 92.16c0 50.899 41.261 92.16 92.16 92.16s92.16-41.261 92.16-92.16zM605.327 140.8c0-50.899-41.261-92.16-92.16-92.16s-92.16 41.261-92.16 92.16c0 50.899 41.261 92.16 92.16 92.16s92.16-41.261 92.16-92.16z" />
<glyph unicode="&#xe900;" glyph-name="buffet" d="M575.345 571.085c10.097 13.23 15.954 29.716 15.954 47.616 0 8.581-1.393 16.855-3.953 24.535 25.805 1.741 46.039 22.999 46.039 49.070 0 27.279-21.934 49.316-49.213 49.316-26.399 0-47.964-20.91-49.070-47.022-7.27 2.212-15.114 3.4-23.081 3.4-7.946 0-15.79-1.188-23.020-3.4-1.27 26.153-22.753 47.022-49.132 47.022-27.259 0-49.316-22.036-49.316-49.316 0-26.071 20.357-47.35 46.162-49.070-2.56-7.68-3.994-15.954-3.994-24.535 0-17.9 5.939-34.406 15.995-47.616-161.26-29.798-283.382-171.008-283.382-340.787h693.391c0 169.82-122.204 310.989-283.382 340.787zM512 212.951h-405.32c0 0 7.434-58.614 42.086-58.614 22.835 0 173.097 0 272.998 0 51.937 0 90.235 0 90.235 0 125.133 0 338.883 0 363.254 0 34.488 0 42.086 58.614 42.086 58.614h-405.34z" />
<glyph unicode="&#xe901;" glyph-name="zen" d="M699.863 126.525c-8.335 1.29-14.602 2.191-19.702 2.929-15.708 2.212-19.907 2.806-38.257 8.52-7.25 2.253-35.512 30.781-35.512 86.61 0 71.946 17.060 135.455 24.412 159.437 0.205 0.594 0.676 2.417 1.331 4.854 1.229 4.506 10.138 31.683 10.138 31.683 4.833 13.844 9.81 28.14 13.066 42.824l0.184 0.758c4.895 21.258 20.972 99 22.118 206.561 0 10.875-9.011 20.316-14.418 25.948-0.983 1.044-1.864 1.946-2.519 2.703-5.181 6.021-12.022 13.476-19.927 22.118-5.222 5.673-10.957 11.94-17.121 18.78-9.892 10.936-20.931 20.951-31.601 30.638-13.128 11.899-26.685 24.207-37.847 38.052-16.65 20.705-32.051 56.975-29.286 86.2 0.43 4.403-0.594 8.192-2.888 10.711-2.56 2.806-6.533 3.686-10.035 2.294-3.502 1.393-7.516 0.512-10.035-2.294-2.294-2.519-3.338-6.308-2.888-10.711 2.785-29.225-12.616-65.495-29.286-86.2-11.141-13.865-24.719-26.153-37.847-38.052-10.67-9.687-21.709-19.681-31.601-30.638-6.164-6.84-11.919-13.128-17.121-18.78-7.905-8.622-14.746-16.077-19.948-22.118-0.635-0.758-1.495-1.659-2.499-2.703-5.386-5.632-14.418-15.073-14.418-25.989 1.147-107.5 17.224-185.242 22.118-206.5l0.184-0.758c3.236-14.705 8.253-29 13.066-42.824 0 0 8.909-27.177 10.138-31.683 0.655-2.437 1.126-4.26 1.331-4.854 7.332-23.982 24.412-87.491 24.412-159.437 0-55.849-28.283-84.357-35.512-86.61-18.35-5.714-22.548-6.308-38.257-8.52-5.12-0.717-11.366-1.618-19.702-2.929-90.092-9.585-99.84-54.313-99.84-73.114 0-5.018 2.601-21.402 14.5-36.454 10.67-13.578 31.969-29.737 72.704-29.737 6.124 0 12.595 0.369 19.231 1.085 27.116 2.929 54.456 7.291 80.876 11.51 9.605 1.536 19.169 3.072 28.774 4.567 12.78 1.966 35.82 3.256 68.485 3.85 1.516 0.041 2.58 0.061 3.092 0.082 0.512-0.020 1.577-0.061 3.092-0.082 32.666-0.573 55.706-1.884 68.506-3.85 9.605-1.475 19.169-3.011 28.774-4.567 26.419-4.219 53.76-8.602 80.876-11.51 6.636-0.717 13.107-1.085 19.231-1.085 40.735 0 62.034 16.159 72.704 29.737 11.899 15.053 14.5 31.437 14.5 36.454 0.041 18.76-9.687 63.508-99.779 73.093v0zM559.657 492.749c-1.352 0-2.601 0.287-3.891 0.901-4.198 1.659-9.585 9.687-10.076 12.78 20.89 14.52 34.98 42.127 34.98 73.81 0 46.756-4.936 84.685-68.669 84.685s-68.669-37.929-68.669-84.685c0-31.662 14.111-59.269 34.98-73.81-0.471-3.092-5.98-10.732-10.056-12.78-1.29-0.614-2.56-0.901-3.891-0.901-13.414 0-30.249 29.368-34.652 41.062-7.537 19.886-16.916 54.026-18.924 103.854l-0.082 1.925c-0.512 10.486 15.299 37.335 17.388 41.923 2.888 6.349 40.243 63.263 51.323 76.759 3.932 4.792 23.818 31.232 32.584 42.885 8.765-11.653 28.652-38.093 32.604-42.865 11.1-13.496 48.435-70.41 51.323-76.759 2.109-4.588 17.92-31.437 17.408-41.923l-0.082-1.925c-2.007-49.848-11.407-83.988-18.924-103.854-4.444-11.715-21.258-41.083-34.673-41.083v0z" />
<glyph unicode="&#xe902;" glyph-name="drink" d="M539.32 143.544v50.524c49.357 4.833 93 22.282 123.679 47.677v593.367h-4.71c-39.363 13.988-90.399 22.487-146.289 22.487s-106.926-8.479-146.289-22.487h-4.71v-593.367c30.679-25.436 74.322-42.885 123.679-47.677v-50.524c-74.752-4.28-131.727-25.969-131.727-52.122 0-29.286 71.25-53.043 159.048-53.043 87.839 0 159.048 23.757 159.048 53.043 0 26.173-56.975 47.841-131.727 52.122zM512.041 231.793l-23.45 2.273c-33.239 3.195-63.59 13.046-87.45 28.078v383.447h221.676v-383.447c-23.798-15.032-54.19-24.883-87.45-28.078l-23.327-2.273z" />
<glyph unicode="&#xe903;" glyph-name="bike" d="M765.030 534.753c-24.842 0-48.271-5.939-69.161-16.384l-77.23 127.222h84.849c8.049 0 14.541 6.451 14.541 14.52 0 7.926-6.492 14.397-14.541 14.397h-108.421c-7.926 0-14.397-6.472-14.397-14.397 0-0.696 0.287-1.126 0.287-1.843-0.43-3.092 0-6.369 1.843-9.298l26.255-43.213h-228.413c-0.43 0-0.983-0.287-1.536-0.287l-24.289 40.12h48.845c7.905 0 14.397 6.451 14.397 14.377 0 8.069-6.492 14.541-14.397 14.541h-122.962c-7.926 0-14.397-6.472-14.397-14.541 0-7.926 6.472-14.377 14.397-14.377h40.223l37.97-62.566-36.7-61.686c-19.333 8.602-40.653 13.394-63.242 13.394-86.241 0.020-156.549-70.267-156.549-156.549 0-86.364 70.308-156.692 156.57-156.692 80.323 0 146.534 60.723 155.566 138.65h87.798c2.683 0 5.222 0.737 7.332 1.966 0.143 0 0.143 0 0.287 0.184 1.864 1.106 3.4 2.662 4.526 4.526 0 0.143 0.287 0.287 0.43 0.41l118.19 198.902 38.093-62.812c-37.97-28.652-62.812-73.974-62.812-125.071 0-86.364 70.308-156.692 156.57-156.692 86.405 0 156.692 70.349 156.692 156.692-0.041 86.221-70.349 156.508-156.611 156.508v0zM375.972 555.090l100.803-166.011h-61.686c-3.4 48.988-29.389 91.894-67.645 118.149l28.529 47.862zM385.577 388.936h-108.278l55.337 93.164c29.798-21.053 49.684-54.62 52.941-93.164v0zM259.092 250.429c-70.431 0-127.754 57.324-127.754 127.754 0 70.308 57.324 127.611 127.754 127.611 17.080 0 33.321-3.359 48.271-9.585l-68.035-114.176c-2.54-4.526-2.703-10.056 0-14.602 2.54-4.506 7.332-7.311 12.554-7.311h132.956c-8.868-61.829-61.522-109.691-125.747-109.691v0zM502.313 402.637l-105.861 174.346h209.347l-103.485-174.346zM765.030 250.429c-70.431 0-127.754 57.324-127.754 127.754 0 40.653 19.476 76.513 49.132 99.983l67.482-111.104c2.683-4.506 7.475-6.943 12.288-6.943 2.683 0 5.222 0.737 7.619 2.13 6.779 4.055 8.909 12.964 4.792 19.784l-67.625 111.493c16.527 7.741 34.57 12.39 54.067 12.39 70.308 0 127.611-57.324 127.611-127.754s-57.303-127.734-127.611-127.734v0z" />
<glyph unicode="&#xe904;" glyph-name="celiac" d="M921.6 618.271l-36.475 36.475-58.696-58.675-116.982 12.861 149.033 149.012-36.495 36.495-149.033-149.012-12.882 116.982 58.696 58.696-36.495 36.495-445.235-445.235 20.091-182.743-154.726-154.726 36.495-36.495 154.726 154.726 182.743-20.091 445.235 445.235zM426.926 399.38l-12.861 117.002 76.247 76.247 12.861-117.002-76.247-76.247zM539.668 439.153l116.982-12.882-76.247-76.247-117.002 12.861 76.268 76.268zM779.653 549.294l-76.247-76.247-116.982 12.861 76.227 76.247 117.002-12.861zM626.176 598.651l-76.247-76.247-12.902 116.982 76.288 76.247 12.861-116.982zM291.041 393.38l76.247 76.247 12.861-117.002-76.227-76.227-12.882 116.982zM340.398 239.882l76.247 76.247 116.982-12.861-76.227-76.247-117.002 12.861z" />
<glyph unicode="&#xe905;" glyph-name="chart" d="M166.605 91.709h115.61v350.413l-115.61-63.222v-287.191zM317.44 461.373v-369.664h115.61v219.914l-89.887 163.922-25.723-14.172zM468.152 91.709h115.61v256.512l-115.61-100.844v-155.668zM618.926 91.709h115.61v388.178l-115.61-100.844v-287.334zM769.679 510.71v-419h115.466v374.436l-77.558 77.537-37.908-32.973zM485.396 326.083l324.219 285.594 54.825-54.825 57.16 247.419-247.419-56.996 51.22-51.22-209.019-184.177-108.872 191.119-305.111-167.096 57.119-104.468 202.629 110.961 123.249-216.31z" />
<glyph unicode="&#xe906;" glyph-name="chips" d="M433.807 659.149c6.636 0 13.128 1.823 18.842 5.263 17.203 10.404 22.712 32.85 12.37 50.033-2.232 3.707-1.044 8.499 2.642 10.691 1.208 0.737 2.56 1.126 3.994 1.126 2.765 0 5.243-1.413 6.676-3.768 6.554-10.854 18.514-17.613 31.232-17.613 6.595 0 13.128 1.823 18.842 5.263 17.203 10.404 22.712 32.85 12.37 50.053-14.52 24.044-41.042 38.973-69.202 38.973-14.684 0-29.041-4.014-41.595-11.612-38.113-22.999-50.36-72.684-27.402-110.776 6.595-10.875 18.514-17.633 31.232-17.633v0zM443.884 764.477c8.356 5.059 17.92 7.741 27.689 7.741 18.76 0 36.434-9.953 46.080-25.969 2.724-4.485 1.27-10.322-3.195-13.025-1.516-0.901-3.154-1.352-4.874-1.352-3.359 0-6.431 1.7-8.11 4.588-6.287 10.363-17.674 16.794-29.798 16.794-6.328 0-12.513-1.741-17.92-5.018-16.445-9.892-21.729-31.293-11.837-47.698 2.724-4.506 1.27-10.342-3.195-13.046-1.516-0.922-3.154-1.352-4.874-1.352-3.359 0-6.39 1.72-8.11 4.588-15.38 25.334-7.209 58.45 18.145 73.748v0zM644.956 729.928c2.806-0.307 5.632-0.43 8.397-0.43 41.431 0 75.96 31.089 80.241 72.335 1.004 9.667-1.802 19.169-7.926 26.747-6.164 7.557-14.889 12.288-24.556 13.271-1.249 0.143-2.519 0.225-3.809 0.225-18.719 0-34.324-14.049-36.25-32.686-0.41-3.891-3.809-6.963-7.721-6.963-0.287 0-0.553 0-0.84 0.041-2.048 0.205-3.912 1.208-5.243 2.826-1.27 1.638-1.884 3.666-1.679 5.714 1.004 9.687-1.802 19.19-7.967 26.747-6.083 7.557-14.807 12.288-24.474 13.292-1.27 0.123-2.56 0.205-3.809 0.205-18.719 0-34.284-14.049-36.25-32.686-2.232-21.402 3.994-42.414 17.592-59.187s32.891-27.218 54.292-29.45v0zM599.921 815.78c0.471 4.854 4.526 8.499 9.4 8.499 0.328 0 0.676-0.020 1.004-0.041 2.519-0.266 4.792-1.495 6.39-3.461 1.597-1.987 2.314-4.444 2.048-6.984-0.963-9.196 1.761-18.268 7.598-25.477s14.152-11.715 23.368-12.677c1.249-0.123 2.437-0.184 3.645-0.184 17.838 0 32.686 13.373 34.57 31.15 0.512 5.181 5.161 9.011 10.404 8.438 2.56-0.266 4.792-1.475 6.39-3.461 1.597-1.946 2.314-4.424 2.048-6.963-2.847-27.464-25.805-48.148-53.391-48.148-1.843 0-3.768 0.082-5.591 0.287-14.234 1.475-27.075 8.479-36.127 19.64-9.114 11.141-13.23 25.129-11.756 39.383v0zM352.85 734.474c11.325 18.35 14.889 40.018 9.912 60.969-8.643 36.577-40.96 62.157-78.52 62.157-6.246 0-12.472-0.717-18.555-2.15-9.482-2.232-17.51-8.049-22.63-16.302-5.12-8.294-6.717-18.084-4.485-27.566 3.912-16.548 18.473-28.078 35.471-28.078 2.806 0 5.632 0.328 8.397 0.963 4.157 1.004 8.397-1.7 9.359-5.755 0.471-2.028 0.123-4.116-0.963-5.878-1.085-1.782-2.806-3.011-4.833-3.502-9.482-2.232-17.51-8.049-22.63-16.323s-6.676-18.063-4.485-27.525c3.953-16.568 18.514-28.099 35.471-28.099 2.806 0 5.632 0.328 8.397 0.983 20.972 4.915 38.769 17.756 50.094 36.106v0zM329.871 748.646c-7.516-12.227-19.354-20.787-33.321-24.044-0.717-0.184-1.475-0.287-2.191-0.287-4.403 0-8.192 3.011-9.236 7.311-0.553 2.478-0.123 4.997 1.208 7.188 1.311 2.13 3.4 3.645 5.878 4.219 8.991 2.13 16.671 7.68 21.565 15.585s6.39 17.224 4.28 26.235c-3.727 15.77-17.633 26.767-33.792 26.767-2.724 0-5.407-0.307-8.008-0.942-0.717-0.143-1.475-0.246-2.191-0.246-4.444 0-8.192 2.99-9.236 7.291-0.553 2.478-0.164 5.018 1.208 7.188 1.311 2.15 3.4 3.686 5.878 4.239 4.035 0.983 8.192 1.454 12.37 1.454 25.006 0 46.51-17.019 52.285-41.39 3.236-13.906 0.881-28.324-6.697-40.571v0zM786.432 130.437l-0.041 0.164c0 0.43 0 0.86-0.082 1.311 0 0.102 0 0.205-0.041 0.307-0.041 0.41-0.123 0.778-0.164 1.167 0 0-0.041 0.061-0.041 0.102-0.123 0.492-11.633 50.872-11.633 125.788v164.147c0 74.691 11.121 125.563 11.244 126.054v0.082c0.123 0.43 0.164 0.86 0.246 1.27 0 0.061 0 0.123 0 0.164 0.041 0.451 0.082 0.963 0.082 1.413v78.52c0 7.455-6.042 13.476-13.476 13.476h-37.683c0.799 30.392-15.729 59.331-42.844 73.708-5.243 2.765-11.121 4.219-17.039 4.219-13.558 0-25.928-7.414-32.236-19.395-9.4-17.777-2.601-39.875 15.196-49.254 3.277-1.761 4.751-5.693 3.604-9.257h-335.565c-7.434 0-13.476-6.021-13.476-13.476v-78.582c0 0 0-0.205 0-0.287 0.041-0.41 0.041-0.799 0.082-1.188 0.041-0.143 0.041-0.287 0.082-0.41 0.041-0.369 0.123-0.717 0.205-1.065 0-0.061 0-0.102 0.041-0.164 0.082-0.492 12.001-51.282 12.001-125.87v-164.147c0-74.629-11.51-125.297-11.633-125.788 0-0.041 0-0.082 0-0.123-0.082-0.369-0.123-0.696-0.205-1.085 0-0.123-0.041-0.246-0.041-0.389-0.041-0.41-0.082-0.799-0.082-1.229 0-0.082 0-0.164 0-0.246v-78.541c0-7.434 6.042-13.496 13.476-13.496h446.505c7.475 0 13.476 6.062 13.476 13.496v78.541h0.041zM460.964 116.92v-51.548h-47.247v51.548h47.247zM487.916 116.92h47.247v-51.548h-47.247v51.548zM562.156 116.92h45.404v-51.548h-45.404v51.548zM634.511 116.92h47.288v-51.548h-47.288v51.548zM342.712 143.913c3.645 21.422 9.155 62.3 9.155 115.343v164.147c0 53.043-5.673 94.024-9.482 115.528h413.88c-3.523-21.422-8.806-62.423-8.806-115.528v-164.147c0-53.043 5.489-93.921 9.114-115.343h-413.86zM681.329 617.431v-51.569h-47.206v51.569h47.206zM607.13 565.862h-45.404v51.569h45.404v-51.569zM534.753 565.862h-47.247v51.569h47.247v-51.569zM460.513 565.862h-47.227v51.569h47.247v-51.569zM759.030 565.862h-50.729v51.569h50.729v-51.569zM666.563 690.299c1.638 3.113 4.874 5.038 8.397 5.038 1.556 0 3.031-0.369 4.444-1.085 16.077-8.52 26.522-24.719 28.242-42.476h-19.128c-1.556 10.65-7.967 20.378-18.002 25.702-4.628 2.458-6.39 8.192-3.953 12.82v0zM339.436 617.431h46.879v-51.569h-46.879v51.569zM339.886 116.92h46.879v-51.548h-46.879v51.548zM759.439 65.393h-50.688v51.548h50.688v-51.548zM686.674 423.731h-29.88c-7.434 0-13.476-6.021-13.476-13.476s6.042-13.476 13.476-13.476h16.404v-108.257h-245.473v108.257h156.283c7.434 0 13.476 6.021 13.476 13.476s-6.042 13.476-13.476 13.476h-169.759c-7.434 0-13.476-6.021-13.476-13.476v-135.229c0-7.455 6.042-13.496 13.476-13.496h272.445c7.434 0 13.476 6.042 13.476 13.496v135.229c0 7.455-6.042 13.476-13.496 13.476v0z" />
<glyph unicode="&#xe907;" glyph-name="clock" d="M544.645 466.821c-10.383 18.063-33.464 24.228-51.507 13.824v0c-18.043-10.424-24.228-33.485-13.804-51.528l99.062-170.967c10.404-18.063 33.464-24.228 51.507-13.804v0c18.063 10.404 24.228 33.464 13.824 51.528l-99.082 170.947zM549.704 448c0-20.823-16.881-37.704-37.704-37.704s-37.704 16.881-37.704 37.704c0 20.823 16.881 37.704 37.704 37.704s37.704-16.881 37.704-37.704zM512 857.58c-226.222 0-409.6-183.378-409.6-409.58s183.378-409.6 409.6-409.6 409.6 183.378 409.6 409.6-183.378 409.58-409.6 409.58zM512 86.528c-199.639 0-361.452 161.833-361.452 361.472s161.812 361.452 361.452 361.452 361.452-161.833 361.452-361.452-161.812-361.472-361.452-361.472zM549.724 448c0-20.849-16.876-37.724-37.724-37.724v0c-20.849 0-37.724 16.876-37.724 37.724v284.467c0 20.849 16.876 37.724 37.724 37.724v0c20.849 0 37.724-16.876 37.724-37.724v-284.467z" />
<glyph unicode="&#xe908;" glyph-name="download" d="M503.583 794.358c-14.52 0-26.296-11.756-26.296-26.276v-410.337l-68.506 68.506c-10.301 10.26-26.911 10.26-37.212 0-10.24-10.26-10.24-26.89 0-37.192l113.418-113.377c5.14-5.12 11.899-7.721 18.596-7.721s13.455 2.601 18.596 7.721l113.398 113.377c10.26 10.301 10.26 26.931 0 37.192-10.281 10.26-26.931 10.26-37.192 0l-68.506-68.506v410.317c0 14.52-11.776 26.296-26.296 26.296v0zM402.821 561.992c-21.217 6.144-43.315 9.257-65.618 9.257-129.475 0-234.803-105.329-234.803-234.803 0-124.416 97.362-226.284 219.894-234.066 1.27-0.184 2.376-0.758 3.707-0.758h425.984c0.594 0 1.126 0.328 1.679 0.328s1.065-0.328 1.638-0.328c91.73 0 166.298 77.148 166.298 171.95 0 93.471-76.083 169.636-169.615 169.636-0.266 0-0.43-0.143-0.696-0.143-21.033 58.88-77.21 101.253-143.258 101.253-14.52 0-26.296-11.776-26.296-26.296s11.776-26.296 26.296-26.296c54.927 0 99.676-44.728 99.676-99.676 0-14.541 11.694-26.296 26.296-26.296 13.722 0 24.596 10.65 25.805 24.125 60.867-4.137 109.199-54.415 109.199-116.306 0-65.802-50.954-119.316-113.705-119.316-0.573 0-1.085-0.348-1.638-0.348s-1.085 0.348-1.679 0.348h-414.781c-100.475 0-182.19 81.756-182.19 182.19 0 100.475 81.715 182.272 182.19 182.272 17.367 0 34.509-2.437 50.975-7.209 13.967-4.076 28.57 3.994 32.563 17.9 4.055 13.926-3.932 28.508-17.92 32.584v0z" />
<glyph unicode="&#xe909;" glyph-name="friends" d="M338.104 649.564c45.425 7.188 76.39 49.828 69.181 95.232-4.567 28.836-23.491 51.855-48.333 62.956 3.994 3.686 8.643 7.25 14.152 10.588 2.621 1.577 4.096 4.547 3.768 7.598-0.348 3.031-2.417 5.591-5.345 6.574-14.070 4.69-29.921 2.335-44.421-2.908 1.782 5.161 4.198 10.506 7.516 16.056 1.577 2.642 1.454 5.939-0.266 8.479s-4.772 3.85-7.803 3.297c-30.003-5.059-52.736-39.895-60.826-59.843-1.413-3.564-2.437-7.209-3.092-10.813-15.79-17.981-23.818-42.557-19.763-68.014 7.209-45.466 49.848-76.39 95.232-69.202v0zM907.018 664.699c-11.715 10.875-30.024 10.22-40.899-1.495l-97.28-104.694c-8.11 5.775-17.51 9.748-27.546 11.346l-42.353 6.717c-10.158 1.597-20.419 0.737-30.024-2.314l-60.191 129.741c-6.697 14.479-23.921 20.808-38.4 14.090-14.5-6.717-20.808-23.921-14.090-38.42l69.714-150.385c-1.516-5.55 0.43 5.775-24.248-155.628l-38.052-46.797 1.106-1.372c10.568-12.964 16.323-29.164 16.323-45.875v-139.407c0.451-0.020 0.922-0.061 1.393-0.061 19.988 0 36.188 16.2 36.188 36.168v103.547l40.346 49.603 35.84-6.84-9.421-59.392c-0.328-2.028-0.492-4.076-0.43-6.124l1.638-129.638c0.266-19.845 16.404-35.738 36.168-35.717 0 0 0.307 0 0.451 0 19.968 0.246 35.963 16.65 35.717 36.618l-1.597 126.587c2.15 13.578 38.564 242.504 38.769 247.91l112.394 120.955c10.875 11.694 10.179 30.003-1.516 40.878v0zM724.316 600.904c37.827-6.021 73.339 19.784 79.319 57.61 3.379 21.217-3.277 41.718-16.445 56.689-0.512 3.011-1.372 6.042-2.58 8.991-6.758 16.63-25.702 45.65-50.688 49.91-2.478 0.451-5.038-0.635-6.472-2.724-1.434-2.13-1.516-4.854-0.225-7.066 2.744-4.649 4.772-9.114 6.287-13.394-12.083 4.362-25.293 6.349-37.028 2.417-2.417-0.799-4.157-2.97-4.444-5.509s0.942-5.018 3.113-6.328c4.608-2.785 8.479-5.734 11.796-8.806-20.705-9.257-36.454-28.426-40.284-52.47-5.98-37.806 19.845-73.318 57.651-79.319v0zM485.274 376.812l-29.082 186.839 83.661 180.47c8.090 17.408 0.492 38.052-16.876 46.121-17.408 8.069-38.052 0.492-46.141-16.896l-72.212-155.771c-11.53 3.707-23.859 4.69-36.045 2.785l-50.831-8.069c-12.063-1.925-23.388-6.615-33.116-13.558l-116.695 125.645c-13.087 14.049-35.062 14.868-49.091 1.802-14.070-13.066-14.868-35.041-1.802-49.091l134.881-145.183c0 0 20.173-131.154 46.551-297.595l-1.925-151.921c-0.307-23.962 18.883-43.663 42.865-43.95 0.205 0 0.369 0 0.369 0 23.921 0 43.295 19.087 43.602 42.865l1.987 155.628c0.041 2.458-0.143 4.915-0.532 7.332l-11.305 71.311 43.028 8.192 48.415-59.535v-124.252c0-23.982 19.436-43.418 43.397-43.418 23.982 0 43.438 19.436 43.438 43.418v139.674c0 9.994-3.441 19.661-9.748 27.402l-56.791 69.755z" />
<glyph unicode="&#xe90a;" glyph-name="group" d="M845.353 563.405c-25.62 0-46.367-20.685-46.367-46.346 0-25.682 20.746-46.428 46.367-46.428 25.702 0 46.408 20.746 46.408 46.428 0 25.661-20.705 46.346-46.408 46.346v0zM178.647 563.405c-25.661 0-46.408-20.685-46.408-46.346 0-25.682 20.746-46.428 46.408-46.428s46.367 20.746 46.367 46.428c-0.020 25.661-20.705 46.346-46.367 46.346v0zM707.502 647.741c-38.236 0-69.059-31.027-69.059-69.059 0-37.949 30.822-68.997 69.059-68.997 37.97 0 69.079 31.068 69.079 68.997 0 38.052-31.109 69.059-69.079 69.059v0zM921.6 227.963h-78.705v144.794c0 24.904-7.127 48.108-18.964 68.055 6.881 1.987 14.049 3.461 21.422 3.461 41.964 0 76.247-34.304 76.247-76.227v-140.083zM316.498 647.741c-37.97 0-69.038-31.027-69.038-69.059 0-37.949 31.068-68.997 69.038-68.997 38.011 0 69.1 31.068 69.1 68.997 0 38.052-31.068 69.059-69.1 69.059v0zM178.647 444.293c7.619 0 14.541-1.475 21.463-3.461-11.837-19.968-19.005-43.151-19.005-68.055v-144.794h-78.705v140.104c0 41.902 34.284 76.206 76.247 76.206v0zM511.898 785.695c-56.259 0-101.908-45.916-101.908-102.134s45.65-102.134 101.908-102.134c56.218 0 102.093 45.916 102.093 102.134s-45.875 102.134-102.093 102.134v0zM817.746 174.182h-120.34v220.283c0 30.106-8.172 58.45-20.972 83.64 9.851 2.908 20.193 4.895 31.089 4.895 60.662 0 110.244-49.316 110.244-110.244v-198.574zM326.636 394.465v-220.283h-120.381v198.574c0 60.928 49.582 110.244 110.51 110.244 10.813 0 20.931-2.007 30.802-4.895-12.78-25.17-20.931-53.535-20.931-83.64v0zM352.010 110.305h319.959v284.16c0 88.064-71.803 159.867-160.072 159.867-88.31 0-159.887-71.803-159.887-159.867v-284.16z" />
<glyph unicode="&#xe90b;" glyph-name="headset" d="M802.632 635.802c-35.43 129.782-154.337 221.798-290.632 221.798-136.315 0-255.222-92.017-290.632-221.798-30.72-5.652-54.088-32.625-54.088-64.963v-135.885c0-28.467 18.104-52.777 43.377-62.034v-6.287c0-140.636 97.362-262.185 233.267-293.56 14.991-21.443 39.813-34.673 66.54-34.673h50.913c44.749 0 81.142 36.393 81.142 81.121 0 44.749-36.393 81.142-81.142 81.142h-50.913c-27.361 0-52.204-13.681-66.99-35.308-85.811 28.979-144.036 108.974-144.036 201.298v189.645c0 117.228 95.314 212.623 212.562 212.623 117.228 0 212.562-95.396 212.562-212.623v-121.324c0-36.434 29.655-66.068 66.089-66.068 36.393 0 66.089 29.614 66.089 66.068v135.885c-0.020 32.338-23.409 59.29-54.108 64.942z" />
<glyph unicode="&#xe90c;" glyph-name="hipster" d="M701.46 254.218c-85.012-30.597-91.259 41.288-176.66 43.848-73.912 2.294-130.888-60.805-188.887-50.34-26.501 4.588-45.24 57.344-79.79 80.548-30.208-5.734 15.421-192.205 65.905-190.546 109.855 1.659 22.794-96.85 205.066-99.287 182.374-2.417 66.028 97.628 188.887 109.855 57.856 8.151 81.449 167.711 55.439 187.228-38.482-17.101-48.046-73.421-69.96-81.306zM423.854 202.854c0 0 32.502 40.776 84.255 40.776 51.732 0 94.065-40.776 94.065-40.776h-178.319zM769.761 675.84c0 0 25.129-84.398 27.791-167.731 2.662-78.377-17.224-155.873-15.565-158.679 26.010 47.288 79.79 25.231 87.941 169.267 8.172 144.118-76.452 114.831-100.168 157.143zM254.239 682.312c-23.572-42.312-108.339-13.005-100.188-156.979 8.151-144.179 61.932-122.143 87.941-169.411 1.659 2.806-18.104 80.302-15.565 158.679 2.703 83.333 27.812 167.711 27.812 167.711zM362.824 761.344c62.587 9.81 94.433-48.087 164.413-49.746 69.96-1.638 19.476 45.65 132.669 39.137 17.981-2.458 46.408 101.704-146.944 106.68-193.352 4.854-162.386-97.751-150.139-96.072z" />
<glyph unicode="&#xe90d;" glyph-name="lamp" d="M565.33 440.525v76.657c0 23.040-14.643 42.68-35.123 50.115v272.097c0 10.056-8.172 18.207-18.207 18.207s-18.207-8.131-18.207-18.207v-272.077c-20.48-7.434-35.123-27.075-35.123-50.115v-76.657c-137.073-24.269-242.831-140.349-251.249-282.214h609.116c-8.376 141.865-114.135 257.946-251.208 282.194v0zM512 38.4c63.713 0 119.767 33.362 151.634 83.517h-303.268c31.867-50.176 87.921-83.517 151.634-83.517v0z" />
<glyph unicode="&#xe90e;" glyph-name="like" d="M905.544 501.862c-18.616 33.034-72.561 29.696-83.231 28.754l-169.144 5.591c2.376 12.37 5.816 30.884 10.097 57.528 6.595 41.574 3.523 86.2-32.911 169.021l-1.618 3.686-3.154 2.58c-25.928 20.603-49.848 27.587-71.291 20.664-30.843-10.076-41.329-44.483-42.435-48.374l-0.532-2.171v-88.105c-7.475-14.602-37.478-71.864-70.984-125.829-17.101-27.525-33.812-41.452-46.039-48.394-4.076 3.584-9.359 5.734-15.114 5.734h-243.2c-13.087 0-23.634-10.691-23.634-23.613v-0.635l25.784-331.735c0.389-12.595 10.854-22.794 23.491-22.794h217.518c12.943 0 23.429 10.568 23.429 23.634v24.003c8.499-0.84 16.343-2.765 20.357-6.472 15.012-13.967 39.895-16.609 56.443-16.609 7.148 0 12.636 0.512 15.155 0.758h265.032c35.226 0 53.821 15.319 63.222 28.078 17.49 23.962 17.019 56.975 12.78 79.34 18.166 13.107 36.393 38.543 24.371 86.548 34.038 24.945 29.164 62.956 23.654 89.6 27.341 37.847 34.55 67.113 21.955 89.211zM369.521 136.868h-199.004l-24.228 312.463h223.232v-312.463zM852.685 426.619l-4.69-6.062 1.679-7.557c7.004-32.092 9.605-54.19-16.753-67.789l-12.513-6.615 4.444-13.271c4.588-13.804 16.794-50.278-15.585-65.987l-12.882-6.349 4.28-13.558c4.895-15.237 7.905-45.691-4.588-62.71-7.229-9.748-19.19-14.541-36.495-14.541l-267.858-0.082c-13.885-1.618-38.113-0.492-46.244 7.148-11.551 10.588-28.365 14.356-42.947 15.483v259.031c17.859 8.11 42.086 25.805 65.987 64.082 39.137 63.037 73.687 130.867 74.158 131.584l1.638 3.564v91.197c1.905 5.181 8.397 20.111 20.173 23.962 11.469 3.809 26.030-4.198 37.192-12.616 23.511-54.252 36.475-98.079 28.795-146.575-8.561-53.924-13.537-74.383-13.681-74.588l-4.956-19.845 212.746-6.943c14.868 1.577 45.527-0.184 52.163-12.042 2.089-3.604 6.492-18.76-24.064-58.921zM379.146 93.757h-217.518c-17.94 0-32.952 14.582-33.485 32.522l-25.743 331.223c-0.041 19.968 15.032 35.021 33.587 35.021h243.159c5.386 0 10.629-1.311 15.34-3.83 9.994 6.84 23.368 19.272 37.315 41.779 33.485 53.903 63.365 111.124 69.489 122.962l0.86 90.296c2.13 7.496 14.152 44.032 49.029 55.439 24.719 7.946 52.060 0.369 80.63-22.344l5.12-4.178 2.58-5.878c37.437-85.074 40.53-131.338 33.649-174.592-3.133-19.558-5.816-34.734-7.987-46.367l157.491-5.222c1.393 0.205 6.451 0.553 12.943 0.553 22.139 0 61.788-4.465 78.664-34.427 14.295-25.068 7.803-56.648-20.009-96.379 4.26-21.402 10.158-62.587-23.163-91.238 9.421-45.404-6.922-71.905-24.699-86.856 2.724-18.678 4.26-53.862-15.524-80.998-10.854-14.705-31.99-32.174-71.291-32.174h-265.073c-1.679-0.225-7.557-0.758-15.155-0.758-19.395 0-46.1 3.338-63.242 19.251-0.492 0.43-1.638 1.085-3.564 1.761v-11.96c0.020-18.514-14.991-33.608-33.403-33.608zM135.987 472.556c-7.516 0-13.64-6.103-13.64-13.619l25.743-331.571c0.246-7.741 6.308-13.599 13.537-13.599h217.518c7.393 0 13.435 6.124 13.435 13.64v35l10.936-1.065c12.288-1.188 20.869-4.178 26.173-9.114 13.066-12.104 36.721-13.906 49.664-13.906 6.676 0 11.796 0.451 14.152 0.696l266.035 0.061c30.986 0 47.104 13.046 55.173 24.023 17.572 24.105 13.558 58.061 10.998 71.537l-1.188 6.246 5.14 3.727c22.241 16.056 29.184 41.636 20.541 76.042l-1.618 6.492 5.427 3.953c27.628 20.234 25.825 50.176 19.784 79.524l-0.901 4.301 2.58 3.584c24.863 34.427 31.846 60.088 21.361 78.418-15.688 27.873-64.205 24.637-73.667 23.757l-182.067 5.96 2.212 11.489c2.376 12.329 5.775 30.72 10.015 57.242 6.349 39.772 3.277 82.78-32.195 163.41l-1.925 2.54c-23.020 18.289-43.807 24.658-61.932 18.903-25.764-8.417-34.918-38.236-35.901-41.615l-0.164-0.655v-89.272l-1.085-2.15c-3.461-6.738-34.836-67.645-71.393-126.525-18.739-30.188-37.294-44.831-49.582-51.814l-6.164-3.523-5.345 4.69c-1.7 1.495-4.588 3.256-8.561 3.256h-243.098zM379.515 126.874h-218.255l-25.784 332.452h244.040v-332.452zM179.753 146.842h179.773v292.516h-202.465l22.692-292.516zM479.683 151.45c-11.162 0-31.314 1.372-41.021 10.506-7.864 7.209-20.296 11.53-36.864 12.78l-9.216 0.717v274.76l5.857 2.662c15.278 6.922 38.38 23.020 61.645 60.252 22.385 36.045 48.128 81.654 72.438 128.43 1.085 2.068 1.72 3.195 1.782 3.297l0.061 0.123 0.594 92.59c2.683 7.311 10.609 24.904 26.481 30.065 12.308 4.096 28.344-0.614 46.285-14.131l2.13-1.577 1.044-2.417c23.572-54.354 37.601-101.007 29.491-152.125-1.065-6.758-9.708-60.703-14.070-75.387l0.225-0.061-1.987-7.844 199.25-6.656c2.99 0.43 6.902 0.614 11.162 0.614 15.176 0 41.923-2.273 50.545-17.633 5.489-9.728 5.632-29.757-24.863-69.878l-1.884-2.417 0.655-2.99c5.919-27.054 13.23-60.703-21.955-78.828l-4.895-2.621 1.741-5.222c4.833-14.684 19.415-58.696-20.726-78.131l-5.12-2.519 1.7-5.407c5.673-17.633 8.827-51.343-6.042-71.619-9.155-12.37-24.166-18.616-44.564-18.616h-265.892c-4.588-0.43-9.175-0.717-13.988-0.717zM412.57 193.638c16.732-2.499 30.044-8.212 39.69-17.019 2.191-2.068 11.448-5.181 27.443-5.181 3.973 0 7.741 0.225 10.916 0.594l2.662 0.123h266.301c13.947 0 23.245 3.441 28.488 10.506 9.646 13.21 7.557 39.854 3.072 53.719l-6.861 21.791 20.562 10.117c21.545 10.445 17.428 32.993 10.588 53.699l-7.209 21.484 20.050 10.588c18.514 9.544 19.149 22.548 11.653 56.812l-2.683 12.104 7.578 9.769c27.566 36.27 23.265 47.944 23.204 48.067-1.679 2.99-14.152 7.291-33.034 7.291-3.482 0-6.656-0.164-9.298-0.43l-2.54-0.184-223.928 7.475 8.376 33.649c1.249 5.222 5.734 25.682 13.066 71.926 7.25 45.773-4.874 87.142-27.013 138.609-10.916 7.803-20.46 11.428-25.969 9.564-5.427-1.761-10.445-9.216-13.312-16.343l-0.942-93.573-3.195-6.472c-24.556-47.206-50.565-93.266-73.196-129.741-23.204-37.171-46.981-55.767-64.471-65.024v-243.917zM325.304 187.453c0-12.657-10.26-22.856-22.733-22.856-12.595 0-22.815 10.199-22.815 22.856 0 12.616 10.22 22.815 22.815 22.815 12.472 0 22.733-10.199 22.733-22.815zM302.551 154.583c-18.084 0-32.829 14.746-32.829 32.85s14.746 32.809 32.829 32.809c18.063 0 32.727-14.705 32.727-32.809s-14.664-32.85-32.727-32.85zM302.551 200.274c-7.086 0-12.841-5.755-12.841-12.82 0-7.107 5.755-12.882 12.841-12.882 7.025 0 12.739 5.775 12.739 12.882 0.020 7.066-5.714 12.82-12.739 12.82z" />
<glyph unicode="&#xe90f;" glyph-name="map" d="M767.959 780.8c-70.636 0-128-57.303-128-127.98 0-19.128 4.239-37.253 11.715-53.514l116.285-228.106 116.326 228.106c7.516 16.261 11.715 34.406 11.715 53.514 0 70.676-57.283 127.98-128.041 127.98v0zM767.959 576c-42.353 0-76.759 34.406-76.759 76.82 0 42.394 34.406 76.78 76.759 76.78 42.435 0 76.841-34.386 76.841-76.78 0-42.435-34.406-76.82-76.841-76.82v0zM806.277 333.64l46.592-93.143-118.129-59.044-39.608 198.144 7.352 7.311-24.433 48.005-12.452-12.513-153.6 102.4-153.6-102.4-102.4 102.4-153.6-307.22 204.8-102.359 204.8 102.359 204.8-102.359 204.8 102.359-86.405 172.81-28.918-56.75zM289.198 181.453l-118.129 59.044 98.918 197.898 58.839-58.798-39.629-198.144zM486.4 262.042l-143.196-71.598 37.007 184.975 6.595 4.362 99.594 66.396v-184.136zM537.6 262.042v184.136l106.148-70.758 37.007-184.975-143.155 71.598z" />
<glyph unicode="&#xe910;" glyph-name="men" d="M646.492 710.431h-268.943c-15.299 0-27.648-12.329-27.648-27.628v-301.404c0-15.278 12.349-27.668 27.648-27.668s27.648 12.37 27.648 27.668v204.78c0 5.222 4.219 9.421 9.462 9.421 5.202 0 9.359-4.198 9.359-9.421v-510.73c0-20.46 16.63-37.089 37.13-37.089 20.46 0 37.028 16.63 37.028 37.089v281.17c0 7.619 6.226 13.804 13.844 13.804 7.598 0 13.824-6.185 13.824-13.804v-281.17c0-20.46 16.568-37.089 37.069-37.089 20.439 0 37.089 16.63 37.089 37.089v510.751c0 5.222 4.219 9.421 9.38 9.421 5.243 0 9.441-4.198 9.441-9.421v-204.78c0-15.278 12.37-27.668 27.709-27.668 15.217 0 27.587 12.37 27.587 27.668v301.384c-0.041 15.299-12.39 27.628-27.628 27.628zM577.987 791.634c0-36.432-29.534-65.966-65.966-65.966s-65.966 29.534-65.966 65.966c0 36.432 29.534 65.966 65.966 65.966s65.966-29.534 65.966-65.966z" />
<glyph unicode="&#xe911;" glyph-name="monument" d="M654.049 788.214c9.605 0 17.367 7.782 17.367 17.408 0 9.605-7.762 17.388-17.367 17.388-9.667 0-17.449-7.782-17.449-17.388 0-9.626 7.782-17.408 17.449-17.408zM529.9 282.071c0-9.411-7.629-17.039-17.039-17.039s-17.039 7.629-17.039 17.039c0 9.411 7.629 17.039 17.039 17.039s17.039-7.629 17.039-17.039zM624.005 282.051c0-9.411-7.629-17.039-17.039-17.039s-17.039 7.629-17.039 17.039c0 9.411 7.629 17.039 17.039 17.039s17.039-7.629 17.039-17.039zM701.051 265.032c9.462 0 17.080 7.639 17.080 17.039 0 9.421-7.619 17.019-17.080 17.019-9.359 0-16.978-7.598-16.978-17.019 0-9.4 7.619-17.039 16.978-17.039zM812.216 282.051c0-9.411-7.629-17.039-17.039-17.039s-17.039 7.629-17.039 17.039c0 9.411 7.629 17.039 17.039 17.039s17.039-7.629 17.039-17.039zM424.141 128.082c18.903 0 34.14 15.278 34.14 34.099 0 18.842-15.237 34.12-34.14 34.12-18.821 0-34.058-15.278-34.058-34.12 0-18.821 15.237-34.099 34.058-34.099zM424.141 168.428c3.441 0 6.308-2.806 6.308-6.246s-2.867-6.246-6.308-6.246-6.226 2.806-6.226 6.246 2.785 6.246 6.226 6.246zM594.145 196.301c-18.903 0-34.14-15.278-34.14-34.12 0-18.821 15.237-34.099 34.14-34.099 18.821 0 34.12 15.278 34.12 34.099 0 18.842-15.299 34.12-34.12 34.12zM594.145 155.955c-3.441 0-6.226 2.806-6.226 6.246s2.785 6.246 6.226 6.246 6.226-2.806 6.226-6.246-2.785-6.246-6.226-6.246zM761.119 196.301c-18.883 0-34.12-15.278-34.12-34.12 0-18.821 15.237-34.099 34.12-34.099 18.842 0 34.058 15.278 34.058 34.099 0 18.842-15.217 34.12-34.058 34.12zM761.119 155.955c-3.441 0-6.308 2.806-6.308 6.246s2.867 6.246 6.308 6.246c3.461 0 6.246-2.806 6.246-6.246s-2.785-6.246-6.246-6.246zM907.162 101.786h-39.158v225.362c0 5.571-3.236 10.281-7.926 12.657-11.284 137.298-73.236 245.371-154.194 278.241v44.872c0 0.225-0.123 0.369-0.123 0.553-0.082 1.577-0.307 3.174-0.881 4.71l-0.164 0.328-37.253 94.966c-2.212 5.53-7.557 9.155-13.414 9.155-5.919 0-11.264-3.645-13.394-9.155l-37.499-95.293c-0.573-1.536-0.799-3.133-0.86-4.71 0-0.205-0.082-0.348-0.082-0.553v-44.831c-81.019-32.87-142.971-140.984-154.255-278.282-4.608-2.376-7.905-7.086-7.905-12.657v-75.776h-85.832v119.276h8.499c7.967 0 14.418 6.431 14.418 14.377 0 7.967-6.451 14.397-14.418 14.397h-8.499v161.956c0.287-0.020 0.573-0.082 0.881-0.082 5.12 0 10.097 2.765 12.677 7.619 3.727 7.025 1.085 15.749-5.939 19.436l-101.601 53.965c-0.43 0.246-0.881 0.225-1.29 0.389-0.963 0.41-1.843 0.655-2.867 0.84-0.819 0.184-1.679 0.287-2.56 0.287-0.983 0.020-1.843-0.102-2.785-0.287-0.901-0.184-1.843-0.451-2.724-0.84-0.43-0.164-0.881-0.143-1.311-0.389l-101.581-53.965c-7.045-3.707-9.687-12.411-5.939-19.436 2.56-4.854 7.537-7.619 12.677-7.619 0.287 0 0.573 0.061 0.881 0.082v-161.956h-8.52c-7.987 0-14.438-6.431-14.438-14.397 0-7.946 6.451-14.377 14.438-14.377h8.499v-119.276h-8.929c-7.987 0-14.438-6.431-14.438-14.397 0-7.946 6.451-14.377 14.438-14.377h8.95v-120.791h-35.983c-7.926-0.020-14.356-6.472-14.356-14.418s6.431-14.397 14.356-14.397h790.405c8.008 0 14.438 6.451 14.438 14.397s-6.431 14.397-14.438 14.397zM522.281 222.597h141.21v-120.791h-141.21v120.791zM692.285 222.597h146.924v-120.791h-146.924v120.791zM831.283 341.545h-88.535c0.225 7.987 0.594 15.892 0.594 24.125 0 85.914-13.332 172.298-39.117 221.553 65.167-33.116 116.367-128.451 127.058-245.678zM593.49 365.67c0 142.991 35.82 234.23 60.498 234.25h0.061c24.678-0.041 60.498-91.259 60.498-234.25 0-8.151-0.164-16.2-0.369-24.125h-120.259c-0.307 7.926-0.43 15.974-0.43 24.125zM654.049 718.909l16.343-41.574h-32.748l16.404 41.574zM630.989 648.561h46.141v-22.057c-7.619 1.29-15.299 2.171-23.081 2.171v0 0h-0.061c-7.762 0-15.462-0.881-22.999-2.171v22.057zM603.791 587.223c-25.784-49.275-39.096-135.639-39.096-221.553 0-8.212 0.369-16.138 0.573-24.125h-88.556c10.711 117.228 61.911 212.541 127.078 245.678zM468.828 312.771h370.401v-61.399h-370.401v61.399zM454.41 222.597h39.178v-120.791h-139.387v120.791h100.209zM253.42 613.335l43.868-23.265h-87.654l43.786 23.265zM181.473 561.316h143.913v-161.874h-143.913v161.874zM181.473 370.647h143.913v-119.276h-143.913v119.276zM181.473 101.786v120.791h143.913v-120.791h-143.913zM253.42 658.391c7.987 0 14.418 6.431 14.418 14.397v89.928c0 7.967-6.431 14.397-14.418 14.397-7.926 0-14.356-6.431-14.356-14.397v-89.928c0-7.967 6.431-14.397 14.356-14.397zM284.488 205.189c-8.008 0-14.356-6.431-14.356-14.377v-57.221c0-7.946 6.369-14.397 14.356-14.397s14.356 6.451 14.356 14.397v57.221c0 7.946-6.39 14.377-14.356 14.377zM222.433 205.189c-7.987 0-14.438-6.431-14.438-14.377v-57.221c0-7.946 6.451-14.397 14.438-14.397 7.905 0 14.356 6.451 14.356 14.397v57.221c0 7.946-6.451 14.377-14.356 14.377zM284.488 355.901c-8.008 0-14.356-6.431-14.356-14.377v-57.221c0-7.967 6.369-14.397 14.356-14.397s14.356 6.431 14.356 14.397v57.221c0 7.946-6.39 14.377-14.356 14.377zM222.433 355.901c-7.987 0-14.438-6.431-14.438-14.377v-57.221c0-7.967 6.451-14.397 14.438-14.397 7.905 0 14.356 6.431 14.356 14.397v57.221c0 7.946-6.451 14.377-14.356 14.377zM252.518 541.512c-20.787 0-37.786-16.937-37.786-37.786v-51.241c0-20.828 16.998-37.786 37.786-37.786 20.828 0 37.806 16.957 37.806 37.786v51.241c0 20.849-16.978 37.786-37.806 37.786zM261.55 452.485c0-4.977-4.014-8.991-9.011-8.991-4.956 0-8.991 4.014-8.991 8.991v51.241c0 4.956 4.035 9.011 8.991 9.011 4.997 0 9.011-4.055 9.011-9.011v-51.241z" />
<glyph unicode="&#xe912;" glyph-name="new" d="M861.184 392.684l60.416 55.316-60.416 55.296 40.366 71.27-74.568 33.915 16.384 80.261-81.388 9.216-9.216 81.408-80.261-16.384-33.915 74.568-71.291-40.387-55.296 60.436-55.296-60.416-71.27 40.387-33.935-74.588-80.261 16.384-9.236-81.408-81.367-9.216 16.384-80.261-74.568-33.915 40.366-71.27-60.416-55.296 60.416-55.296-40.387-71.27 74.588-33.915-16.384-80.241 81.367-9.236 9.236-81.408 80.261 16.404 33.915-74.568 71.27 40.387 55.316-60.457 55.296 60.436 71.27-40.387 33.915 74.568 80.261-16.404 9.216 81.408 81.388 9.236-16.384 80.241 74.568 33.915-40.346 71.27zM625.93 233.984h-59.904l-93.614 237.425v-237.425h-74.363v428.032h62.259l93.839-223.887v223.887h71.782v-428.032z" />
<glyph unicode="&#xe913;" glyph-name="pig" d="M575.037 618.803c65.884 0 119.398 53.453 119.398 119.337 0 66.007-53.514 119.46-119.398 119.46-65.966 0-119.398-53.432-119.398-119.439 0-65.884 53.432-119.357 119.398-119.357zM886.682 426.435h-39.485c-12.001 83.169-62.444 155.259-134.595 202.056-32.358-40.55-81.674-67.215-137.564-67.215-69.632 0-129.126 41.124-158.003 99.717-33.034 54.436-110.838 77.169-110.838 77.169v-126.177c-45.445-34.98-80.794-80.179-99.758-132.547h-105.718v-178.975h105.964c22.118-63.898 66.355-118.948 126.198-156.303v-105.759h122.757v58.9c20.685-3.707 42.394-5.837 64.43-5.837 18.924 0 36.966 2.212 54.968 5.079v-58.143h122.757v100.291c80.916 46.92 136.479 124.6 148.398 214.815h40.489c20.357 0 36.598 16.364 36.598 36.434 0 20.173-16.241 36.495-36.598 36.495zM332.841 473.887c-21.156 0-38.236 17.019-38.236 38.154 0 21.197 17.080 38.298 38.236 38.298 21.115 0 38.277-17.101 38.277-38.298 0-21.135-17.162-38.154-38.277-38.154z" />
<glyph unicode="&#xe914;" glyph-name="pdf" d="M893.604 655.176v48.804h-51.61v61.46l-331.346-61.481h-380.252v-48.804h-27.996v-524.636h819.2v524.657h-27.996zM157.594 655.176v21.463h340.685v-498.381h-340.685v476.918zM660.398 703.98l154.255 28.672v-497.869l-289.055-53.74v497.848l134.799 25.088zM866.263 655.176v-476.918h-205.865l181.453 33.731v464.65h24.392v-21.463zM564.797 304.538l-7.209 26.378 216.003 58.675 7.209-26.276-216.003-58.778zM562.258 230.912l-7.066 26.399 216.003 58.675 7.066-26.399-216.003-58.675zM567.726 585.032l-7.311 26.399 210.514 58.696 4.137-14.95 3.195-11.346-210.534-58.798zM567.726 515.42l-7.311 26.296 210.514 58.675 7.475-26.276-210.678-58.696zM567.316 445.665l-7.311 26.296 211.067 58.819 7.332-26.276-211.087-58.839zM567.316 375.992l-7.311 26.399 211.067 58.655 7.332-26.255-211.087-58.798zM195.604 324.383h267.592v-27.341h-267.592v27.341zM193.065 250.655h267.735v-27.197h-267.735v27.197zM460.8 438.252h-262.799v27.3h262.799v-27.3zM460.8 368.538h-262.799v27.32h262.799v-27.32zM231.342 508.764v32.399c5.325 0.123 11.715 0.266 19.067 0.123 10.404 0 18.289 2.683 23.736 7.762 5.468 5.059 8.131 12.657 8.131 22.385 0 9.318-2.683 16.404-8.131 21.34-5.468 4.813-13.332 7.209-23.736 7.209h-38.134v-91.197h19.067zM231.342 584.376h15.852c5.345 0 9.318-1.065 12.001-3.338 2.662-2.13 3.994-5.325 3.994-9.728 0-4.813-1.331-8.274-3.994-10.67-2.683-2.417-6.656-3.625-12.001-3.625h-15.852v27.361zM334.52 508.764c13.087 0 23.081 3.994 29.88 12.165 6.676 8.11 10.138 20.091 10.138 35.676 0 14.275-3.338 24.965-9.748 32.44-6.533 7.291-16.118 11.039-28.672 11.039h-39.055v-91.32h37.458zM316.129 584.376h17.613c7.188 0 12.657-2.376 16.261-7.209s5.468-11.878 5.468-21.34c0-10.404-2.007-18.268-5.857-23.47-3.85-5.181-9.605-7.844-17.326-7.844h-16.159v59.863zM398.397 508.764h-9.482v91.32h64.963v-16.261h-45.875v-20.664h39.997v-15.749h-39.997v-38.666h-9.605z" />
<glyph unicode="&#xe915;" glyph-name="play" d="M512 857.6c-226.243 0-409.6-183.439-409.6-409.6 0-226.243 183.357-409.6 409.6-409.6s409.6 183.357 409.6 409.6c0 226.161-183.357 409.6-409.6 409.6zM420.168 284.16v327.68l256.512-163.84-256.512-163.84z" />
<glyph unicode="&#xe916;" glyph-name="row" d="M582.738 364.298l-29.921 50.524v354.406l36.864 38.953c2.191 2.335 3.42 5.386 3.42 8.581v28.365c0 6.881-5.571 12.472-12.472 12.472h-141.824c-6.881 0-12.452-5.571-12.452-12.452v-28.385c0-3.42 1.393-6.676 3.871-9.032l40.96-38.851v-351.293l-33.587-55.562c-0.061-0.123-0.143-0.225-0.184-0.348-21.504-38.093-32.85-81.367-32.85-125.092v-90.726c0-59.269 48.189-107.459 107.438-107.459s107.438 48.21 107.438 107.438v86.753c0 46.469-12.718 92.037-36.7 131.707v0zM594.493 145.838c0-45.507-37.028-82.493-82.493-82.493-45.507 0-82.493 37.007-82.493 82.493v90.726c0 39.404 10.199 78.356 29.512 112.701l12.145 20.091v-162.488c0-22.508 18.33-40.817 40.837-40.817s40.817 18.33 40.817 40.817v127.631c0 6.902-5.571 12.472-12.452 12.472s-12.452-5.571-12.452-12.472v-127.631c0-8.765-7.148-15.872-15.892-15.872-8.786 0-15.892 7.127-15.892 15.872v554.885h10.957c6.881 0 12.452 5.55 12.452 12.452 0 6.881-5.571 12.452-12.452 12.452h-18.452l-37.335 35.41v10.609h116.9v-10.936l-36.864-38.953c-2.171-2.314-3.4-5.386-3.4-8.561v-362.824c0-2.232 0.594-4.424 1.741-6.349l31.703-53.555c21.709-35.86 33.157-76.984 33.157-118.907v-86.753z" />
<glyph unicode="&#xe917;" glyph-name="uniE917" d="M559.759 645.12c0-14.908-12.085-26.993-26.993-26.993s-26.993 12.085-26.993 26.993c0 14.908 12.085 26.993 26.993 26.993s26.993-12.085 26.993-26.993z" />
<glyph unicode="&#xe918;" glyph-name="uniE918" d="M635.474 542.372h-13.005c-3.953 27.402-20.603 51.18-44.36 66.58-10.67-13.353-26.911-22.139-45.363-22.139-22.917 0-42.516 13.537-52.081 32.85-10.875 17.94-36.516 25.436-36.516 25.436v-41.595c-14.95-11.51-26.604-26.419-32.87-43.684h-34.836v-58.982h34.918c7.311-21.053 21.873-39.199 41.636-51.528v-34.836h40.448v19.395c6.799-1.229 13.967-1.925 21.238-1.925 6.205 0 12.165 0.717 18.084 1.659v-19.149h40.448v33.034c26.726 15.462 45.036 41.062 48.968 70.799h13.312c6.717 0 12.083 5.407 12.083 12.001-0.020 6.697-5.386 12.083-12.104 12.083zM461.967 549.478c-6.963 0-12.554 5.612-12.554 12.595 0 6.963 5.591 12.616 12.554 12.616 7.004 0 12.636-5.652 12.636-12.616 0-6.984-5.652-12.595-12.636-12.595z" />
<glyph unicode="&#xe919;" glyph-name="uniE919" d="M782.008 549.478l36.434 32.215-42.353 23.9 28.959 39.096-46.408 14.582 20.193 44.257-48.435 4.649 10.568 47.473-48.312-5.55 0.471 48.64-46.121-15.483-9.687 47.718-41.882-24.74-19.395 44.646-35.84-32.87-28.201 39.588-28.242-39.608-35.84 32.87-19.354-44.646-41.882 24.76-9.687-47.698-46.121 15.483 0.471-48.64-48.353 5.55 10.568-47.473-48.394-4.649 20.193-44.257-46.408-14.582 28.959-39.096-42.353-23.9 36.475-32.215-36.475-32.195 42.353-23.921-28.959-39.096 46.408-14.582-20.193-44.257 48.394-4.628-10.568-47.493 48.353 5.55-0.471-48.64 46.121 15.483 9.687-47.677 41.882 24.719 19.354-44.646 35.84 32.891 28.242-39.649 28.201 39.629 35.84-32.891 19.395 44.646 41.882-24.719 9.687 47.677 46.121-15.483-0.471 48.64 48.312-5.55-10.568 47.493 48.435 4.628-20.193 44.257 46.408 14.582-28.959 39.096 42.353 23.921-36.434 32.195zM512 315.494c-129.249 0-234.004 104.755-234.004 233.984 0 129.249 104.755 233.984 234.004 233.984s234.004-104.735 234.004-233.984c0-129.229-104.755-233.984-234.004-233.984z" />
<glyph unicode="&#xe91a;" glyph-name="uniE91A" d="M482.365 267.448l-15.36-14.090z" />
<glyph unicode="&#xe91b;" glyph-name="uniE91B" d="M703.283 338.555l-1.516 0.184 0.471-51.098-48.435 16.261-10.158-50.074-44.052 25.969-20.316-46.879-21.873 20.070-40.755-100.495 56.115-114.094 85.361 123.597 127.386-2.478z" />
<glyph unicode="&#xe91c;" glyph-name="uniE91C" d="M541.635 267.448l-29.635-41.615-29.635 41.615-37.642-34.529-20.357 46.879-44.012-25.989-10.158 50.094-48.435-16.261 0.471 49.807-75.715-201.933 148.48 22.467 85.484-94.474 76.923 189.481z" />
<glyph unicode="&#xe91d;" glyph-name="sea" d="M766.792 707.4c-52.777 0-99.471-26.583-127.406-67.133-27.914 40.55-74.629 67.133-127.406 67.133-52.859 0-99.553-26.583-127.488-67.133-27.914 40.55-74.629 67.133-127.406 67.133-85.32 0-154.685-69.366-154.685-154.726h54.579c0 55.194 44.933 100.106 100.147 100.106s100.127-44.892 100.127-100.106h54.559c0 55.194 44.913 100.106 100.209 100.106 55.112 0 100.086-44.892 100.086-100.106h54.641c0 55.194 44.872 100.106 100.086 100.106s100.147-44.892 100.147-100.106h54.62c0 85.361-69.448 154.726-154.808 154.726zM766.792 525.373c-52.777 0-99.471-26.644-127.406-67.154-27.914 40.53-74.629 67.154-127.406 67.154-52.859 0-99.553-26.644-127.488-67.154-27.914 40.53-74.629 67.154-127.406 67.154-85.32 0-154.685-69.427-154.685-154.726h54.579c0 55.194 44.933 100.127 100.147 100.127s100.127-44.913 100.127-100.127h54.559c0 55.194 44.913 100.127 100.209 100.127 55.112 0 100.086-44.913 100.086-100.127h54.641c0 55.194 44.872 100.127 100.086 100.127s100.147-44.913 100.147-100.127h54.62c0 85.299-69.448 154.726-154.808 154.726zM766.792 343.327c-52.777 0-99.471-26.665-127.406-67.174-27.914 40.53-74.629 67.174-127.406 67.174-52.859 0-99.553-26.665-127.488-67.174-27.914 40.53-74.629 67.174-127.406 67.174-85.32 0-154.685-69.407-154.685-154.747h54.579c0 55.214 44.933 100.106 100.147 100.106s100.127-44.872 100.127-100.106h54.559c0 55.214 44.913 100.106 100.209 100.106 55.112 0 100.086-44.872 100.086-100.106h54.641c0 55.214 44.872 100.106 100.086 100.106s100.147-44.872 100.147-100.106h54.62c0 85.34-69.448 154.747-154.808 154.747z" />
<glyph unicode="&#xe91e;" glyph-name="slide" d="M549.458 765.358c0-50.944-41.298-92.242-92.242-92.242s-92.242 41.298-92.242 92.242c0 50.944 41.298 92.242 92.242 92.242s92.242-41.298 92.242-92.242zM523.715 105.288l-35.369 199.045c-0.041 0.164-0.082 0.369-0.123 0.512-0.328 1.638-0.676 3.318-1.167 4.915-0.246 0.881-0.512 1.761-0.84 2.601-0.287 0.922-0.553 1.802-0.922 2.683-0.369 0.963-0.758 1.843-1.208 2.765-0.328 0.799-0.676 1.556-1.085 2.355-0.43 0.84-0.922 1.679-1.393 2.519-0.471 0.758-0.881 1.556-1.352 2.314s-1.044 1.475-1.556 2.232c-0.553 0.758-1.085 1.556-1.679 2.314-0.553 0.676-1.126 1.311-1.679 1.966-0.676 0.758-1.27 1.516-1.966 2.232-0.676 0.676-1.393 1.311-2.089 2.007-0.676 0.594-1.27 1.249-2.007 1.843-1.249 1.085-2.601 2.13-3.953 3.072-0.164 0.123-0.287 0.246-0.43 0.369l-128.758 89.887 70.84 101.356 126.075-88.084c20.89-14.561 49.644-9.441 64.246 11.448s9.482 49.644-11.407 64.205l-150.241 104.919c-4.833 17.326-15.483 33.116-31.396 44.196-36.393 25.477-86.61 16.568-112.046-19.886l-116.879-167.363c-25.436-36.393-16.527-86.61 19.927-112.046 15.278-10.67 32.952-15.237 50.278-14.275l134.84-94.208 31.191-175.841c5.53-30.966 35.082-51.569 66.007-46.080 30.986 5.509 51.63 35.062 46.141 66.028zM337.888 183.139l-133.561 93.287 28.191 40.362 133.561-93.287-28.191-40.362zM858.276 807.322c6.595 6.758 6.431 17.551-0.287 24.125-6.758 6.676-17.551 6.431-24.166-0.287l-269.025-275.743 28.406-19.804 265.073 271.708zM423.752 386.376c0.676-0.635 1.393-1.27 2.15-1.761 6.717-4.71 16.036-3.994 21.996 2.089l55.849 57.242-28.365 19.804-51.917-53.248c-6.595-6.738-6.431-17.531 0.287-24.125z" />
<glyph unicode="&#xe91f;" glyph-name="smile" d="M512 857.6c-226.222 0-409.6-183.398-409.6-409.6s183.378-409.6 409.6-409.6 409.6 183.378 409.6 409.6-183.378 409.6-409.6 409.6zM640.43 669.245c34.406 0 62.28-27.873 62.28-62.259 0-34.406-27.873-62.28-62.28-62.28-34.386 0-62.259 27.873-62.259 62.28-0.020 34.386 27.873 62.259 62.259 62.259zM383.57 669.245c34.386 0 62.259-27.873 62.259-62.259 0-34.406-27.873-62.28-62.259-62.28-34.406 0-62.28 27.873-62.28 62.28 0 34.386 27.894 62.259 62.28 62.259zM511.98 226.734c-134.451 0-243.896 95.457-243.896 212.787 0 10.772 8.745 19.517 19.538 19.517 10.772 0 19.538-8.745 19.538-19.517 0-95.805 91.873-173.711 204.82-173.711 112.988 0 204.861 77.926 204.861 173.711 0 10.772 8.765 19.517 19.538 19.517 10.793 0 19.538-8.745 19.538-19.517 0-117.33-109.445-212.787-243.937-212.787z" />
<glyph unicode="&#xe920;" glyph-name="tick" d="M768.184 778.772l-342.385-342.446-151.265 151.081-172.134-172.155 311.091-298.045 508.109 508.129z" />
<glyph unicode="&#xe921;" glyph-name="ticket" d="M450.337 235.549l-150.853 150.874 274.172 274.133 150.853-150.874-274.172-274.133zM902.595 591.176l-55.624 55.644c-37.151-37.11-97.321-37.11-134.39 0-37.11 37.11-37.11 97.28 0 134.39l-57.405 57.385c-25.375 25.354-66.478 25.354-91.791 0l-441.979-441.938c-25.334-25.395-25.334-66.478 0-91.832l57.405-57.364c37.11 37.089 97.28 37.089 134.39 0 37.11-37.11 37.11-97.28 0-134.41l55.624-55.624c25.395-25.354 66.458-25.354 91.812 0l441.979 441.958c25.313 25.354 25.313 66.458-0.020 91.791zM478.392 192.143c-15.483-15.503-40.632-15.503-56.136 0l-166.093 166.134c-15.503 15.483-15.503 40.653 0 56.136l289.423 289.444c15.483 15.483 40.653 15.483 56.115 0l166.134-166.134c15.483-15.503 15.483-40.653 0-56.136l-289.444-289.444z" />
<glyph unicode="&#xe922;" glyph-name="trees" d="M842.793 538.317c-16.015 38.707-48.742 103.608-87.716 103.608-10.301 0-23.757-8.581-27.648-11.203-4.649-3.113-7.004-9.073-5.857-14.52 0.143-0.676 14.582-68.997 17.592-101.192 8.991-95.457-7.967-165.356-50.401-207.811-8.499-8.479-24.535-22.446-24.699-22.589-3.236-2.847-4.772-6.902-4.157-10.998 0.655-4.116 3.4-7.434 7.352-9.114 1.516-0.655 30.024-12.513 66.294-18.002-0.348-1.311-0.532-2.724-0.532-4.178v-143.401h-190.198v181.76c45.752 7.332 83.681 31.437 106.516 68.26 49.623 80.036 8.479 319.734-58.45 439.951-25.354 45.609-51.712 68.71-78.336 68.71v0c-26.358 0-52.511-23.183-77.844-68.649-67.052-120.463-108.462-360.12-58.921-439.992 28.733-46.367 73.544-62.689 106.516-68.096v-181.965h-190.218v144.036c0 1.556-0.225 3.052-0.614 4.465 32.502 5.591 57.078 15.667 58.491 16.261 3.953 1.7 6.717 4.69 7.373 8.806 0.635 4.116-0.922 8.274-4.178 11.1-0.164 0.164-16.957 14.746-25.825 23.572-39.24 39.26-52.449 109.22-40.366 213.873 3.379 29.348 15.462 89.805 15.585 90.399 1.024 5.181-1.065 10.854-5.202 14.111-4.936 3.85-21.955 16.527-34.099 16.527-33.649 0-60.723-48.251-77.537-88.842-36.884-89.068-63.652-237.752-23.45-277.975 19.62-19.62 46.551-29.88 80.159-31.314-0.041-0.512-0.061-1.065-0.061-1.618v-143.401h-53.289c-9.769 0-18.022-7.803-18.022-17.039v-25.661c0-9.482 8.417-17.797 18.022-17.797h647.864c9.298 0 17.162 8.131 17.162 17.797v25.661c0 9.564-7.537 17.039-17.162 17.039h-54.19v144.036c0 0.451-0.020 0.901-0.061 1.352 30.515 2.376 55.132 12.554 73.359 30.781 44.052 44.052 26.051 168.366-13.251 263.25v0z" />
<glyph unicode="&#xe923;" glyph-name="upgrade" d="M861.204 392.622l60.396 55.378-60.396 55.296 40.346 71.229-74.547 33.976 16.404 80.241-81.428 9.196-9.236 81.388-80.282-16.323-33.853 74.547-71.332-40.428-55.276 60.477-55.276-60.477-71.352 40.407-33.976-74.547-80.138 16.323-9.257-81.388-81.428-9.196 16.425-80.241-74.609-33.976 40.448-71.209-60.436-55.296 60.436-55.357-40.448-71.188 74.609-33.956-16.425-80.241 81.428-9.277 9.257-81.408 80.138 16.425 33.976-74.547 71.332 40.366 55.296-60.416 55.255 60.416 71.332-40.366 33.853 74.547 80.282-16.425 9.236 81.408 81.428 9.277-16.404 80.241 74.547 33.956-40.325 71.168zM698.061 416.911c-0.799-1.659-2.417-2.662-4.178-2.662h-129.966v-166.154c0-2.642-2.13-4.69-4.669-4.69h-94.536c-2.519 0-4.669 2.068-4.669 4.69v166.154h-129.864c-1.884 0-3.482 1.004-4.28 2.662-0.778 1.638-0.512 3.543 0.676 4.997l181.719 228.884c0.799 1.147 2.212 1.782 3.686 1.782 1.393 0 2.785-0.635 3.727-1.782l181.801-228.884c1.065-1.454 1.352-3.359 0.553-4.997z" />
<glyph unicode="&#xe924;" glyph-name="watergame" d="M868.086 280.781c9.503 8.335 16.404 14.336 37.376 14.336 8.929 0 16.138 7.25 16.138 16.097 0 8.929-7.229 16.138-16.138 16.138-33.137 0-47.268-12.37-58.614-22.303-9.871-8.663-16.998-14.93-39.711-14.93-22.733 0-29.839 6.267-39.772 14.93-11.366 9.912-25.477 22.303-58.614 22.303s-47.268-12.37-58.614-22.303c-9.892-8.663-16.998-14.93-39.731-14.93-22.712 0-29.88 6.267-39.752 14.93-11.366 9.912-25.477 22.303-58.614 22.303-33.096 0-47.227-12.37-58.573-22.303-9.933-8.663-17.039-14.93-39.752-14.93-22.733 0-29.86 6.267-39.772 14.93-11.366 9.912-25.498 22.303-58.573 22.303-33.137 0-47.268-12.37-58.614-22.303-9.871-8.663-17.039-14.93-39.772-14.93-22.712 0-29.839 6.267-39.711 14.93-11.366 9.974-25.477 22.303-58.614 22.303-9.032 0.020-16.261-7.209-16.261-16.056 0-8.929 7.229-16.159 16.138-16.159 20.972 0 27.812-6.001 37.335-14.336 11.674-10.179 26.173-22.876 61.010-22.876s49.336 12.698 61.010 22.876c9.503 8.335 16.364 14.336 37.376 14.336 20.972 0 27.832-6.001 37.335-14.336 11.674-10.179 26.173-22.876 61.010-22.876 34.816 0 49.316 12.698 61.010 22.876 9.503 8.335 16.364 14.336 37.335 14.336 21.012 0 27.853-6.001 37.376-14.336 11.633-10.179 26.173-22.876 61.010-22.876s49.336 12.698 61.010 22.876c9.462 8.335 16.364 14.336 37.335 14.336 21.012 0 27.873-6.001 37.376-14.336 11.612-10.179 26.173-22.876 61.010-22.876 34.857-0.020 49.357 12.677 61.010 22.856v0zM868.086 280.781c9.503 8.335 16.404 14.336 37.376 14.336 8.929 0 16.138 7.25 16.138 16.097 0 8.929-7.229 16.138-16.138 16.138-33.137 0-47.268-12.37-58.614-22.303-9.871-8.663-16.998-14.93-39.711-14.93-22.733 0-29.839 6.267-39.772 14.93-11.366 9.912-25.477 22.303-58.614 22.303s-47.268-12.37-58.614-22.303c-9.892-8.663-16.998-14.93-39.731-14.93-22.712 0-29.88 6.267-39.752 14.93-11.366 9.912-25.477 22.303-58.614 22.303-33.096 0-47.227-12.37-58.573-22.303-9.933-8.663-17.039-14.93-39.752-14.93-22.733 0-29.86 6.267-39.772 14.93-11.366 9.912-25.498 22.303-58.573 22.303-33.137 0-47.268-12.37-58.614-22.303-9.871-8.663-17.039-14.93-39.772-14.93-22.712 0-29.839 6.267-39.711 14.93-11.366 9.974-25.477 22.303-58.614 22.303-9.032 0.020-16.261-7.209-16.261-16.056 0-8.929 7.229-16.159 16.138-16.159 20.972 0 27.812-6.001 37.335-14.336 11.674-10.179 26.173-22.876 61.010-22.876s49.336 12.698 61.010 22.876c9.503 8.335 16.364 14.336 37.376 14.336 20.972 0 27.832-6.001 37.335-14.336 11.674-10.179 26.173-22.876 61.010-22.876 34.816 0 49.316 12.698 61.010 22.876 9.503 8.335 16.364 14.336 37.335 14.336 21.012 0 27.853-6.001 37.376-14.336 11.633-10.179 26.173-22.876 61.010-22.876s49.336 12.698 61.010 22.876c9.462 8.335 16.364 14.336 37.335 14.336 21.012 0 27.873-6.001 37.376-14.336 11.612-10.179 26.173-22.876 61.010-22.876 34.857-0.020 49.357 12.677 61.010 22.856v0zM868.086 216.965c9.503 8.274 16.404 14.275 37.376 14.275 8.929 0 16.138 7.27 16.138 16.159 0 8.929-7.229 16.138-16.138 16.138-33.137 0-47.268-12.37-58.614-22.303-9.871-8.724-16.998-14.93-39.711-14.93-22.733 0-29.839 6.226-39.772 14.93-11.366 9.912-25.477 22.303-58.614 22.303s-47.268-12.37-58.614-22.303c-9.892-8.724-16.998-14.93-39.731-14.93-22.712 0-29.88 6.226-39.752 14.93-11.366 9.912-25.477 22.303-58.614 22.303-33.096 0-47.227-12.37-58.573-22.303-9.933-8.724-17.039-14.93-39.752-14.93-22.733 0-29.86 6.226-39.772 14.93-11.366 9.912-25.498 22.303-58.573 22.303-33.137 0-47.268-12.37-58.614-22.303-9.871-8.724-17.039-14.93-39.772-14.93-22.712 0-29.839 6.226-39.711 14.93-11.366 9.912-25.477 22.303-58.614 22.303-9.032 0.020-16.261-7.209-16.261-16.118 0-8.888 7.229-16.159 16.138-16.159 20.972 0 27.812-6.001 37.335-14.275 11.674-10.24 26.173-22.876 61.010-22.876s49.336 12.636 61.010 22.876c9.503 8.274 16.364 14.275 37.376 14.275 20.972 0 27.832-6.001 37.335-14.275 11.674-10.24 26.173-22.876 61.010-22.876 34.816 0 49.316 12.636 60.969 22.876 9.544 8.274 16.404 14.275 37.376 14.275 21.012 0 27.853-6.001 37.376-14.275 11.633-10.24 26.173-22.876 61.010-22.876s49.336 12.636 61.010 22.876c9.462 8.274 16.364 14.275 37.335 14.275 21.012 0 27.873-6.001 37.376-14.275 11.612-10.24 26.173-22.876 61.010-22.876 34.857-0.020 49.357 12.616 61.010 22.856v0zM427.807 611.308c0 49.992 40.612 90.583 90.665 90.583s90.583-40.571 90.583-90.583c0-50.094-40.53-90.665-90.583-90.665s-90.665 40.571-90.665 90.665v0zM763.208 389.878c-3.236-14.93-16.466-25.129-31.13-25.129-2.232 0-4.465 0.287-6.758 0.737l-153.231 33.137-5.714-51.139c-12.964 6.738-30.228 12.165-54.333 12.165-40.509 0-62.075-15.176-75.469-26.542l9.359 84.091-137.318 13.435c-10.465 1.024-19.763 7.188-24.801 16.404l-57.201 104.366c-0.901 1.577-1.536 3.236-2.13 4.936-22.712 13.128-38.072 37.581-38.072 65.679 0 41.841 33.935 75.837 75.776 75.837 41.902 0 75.817-33.997 75.817-75.837 0-29.164-16.507-54.415-40.653-67.113l34.181-62.444c0 0 100.434-9.933 133.243-13.066 32.829-3.092 82.043-10.097 103.137-14.684 21.074-4.506 170.865-36.946 170.865-36.946 17.203-3.686 28.14-20.705 24.433-37.888v0z" />
<glyph unicode="&#xe925;" glyph-name="wedding" d="M544.072 214.446c6.656 4.547 13.005 9.277 19.149 14.356-28.344 9.892-54.702 24.883-77.128 44.79-6.328-3.666-12.513-7.475-19.272-10.506 22.426-20.849 48.701-37.048 77.251-48.64zM399.503 246.968c-4.772-0.328-9.441-1.393-14.397-1.393-111.575 0-202.424 90.808-202.424 202.424s90.849 202.445 202.424 202.445c111.616 0 202.445-90.829 202.445-202.445 0-52.429-20.541-99.779-53.309-135.762 22.057-17.326 48.128-29.307 76.288-34.099 35.779 47.35 57.242 106.045 57.242 169.861 0 155.894-126.751 282.706-282.665 282.706s-282.706-126.812-282.706-282.706c0-155.832 126.792-282.706 282.706-282.706 31.99 0 62.71 5.632 91.361 15.503-29.082 17.654-55.050 39.997-76.964 66.171zM638.935 730.685c-32.195 0-62.996-5.714-91.853-15.708 29.204-17.736 55.439-39.977 77.312-66.048 4.874 0.389 9.585 1.475 14.541 1.475 111.616 0 202.486-90.829 202.486-202.445s-90.87-202.424-202.486-202.424c-4.936 0-9.503 1.085-14.254 1.393l-1.249-1.536-17.981 3.072c-1.106 0.184-2.171 0.553-3.256 0.758-3.85 0.696-7.496 1.72-11.284 2.683-6.963 1.741-13.885 3.85-20.664 6.41-9.339 3.379-18.186 7.537-26.767 12.227-2.744 1.454-5.53 2.806-8.172 4.465-6.84 4.035-13.312 8.602-19.599 13.455 0 0 0 0-0.041 0.061l-25.518 19.968 1.434 1.516c-33.915 36.25-55.091 84.48-55.091 137.933 0 52.47 20.582 99.901 53.371 135.864-22.016 17.039-48.026 28.877-76.595 33.69-35.615-47.309-56.996-105.923-56.996-169.533 0-155.832 126.792-282.706 282.665-282.706 155.832 0.041 282.665 126.894 282.665 282.747 0 155.894-126.833 282.685-282.665 282.685z" />
<glyph unicode="&#xe926;" glyph-name="basketball" d="M390.697 734.331c-4.567 10.957-11.059 20.029-19.517 27.034-29.266 24.248-83.538 20.214-99.881 18.33-81.981-59.638-141.107-148.89-161.505-251.924 52.101 99.471 154.993 176.128 280.904 206.561v0zM493.814 857.6c-58.266-2.56-113.398-17.347-162.918-41.82 21.033-3.031 44.175-10.404 63.508-26.419 14.95-12.39 25.784-28.365 32.522-47.657 21.75 3.604 44.114 5.837 66.888 6.615v109.281zM709.571 88.822c4.403 2.13 110.756 69.939 70.369 227.471-11.489 44.769-44.462 84.050-78.623 125.85-51.958 63.57-110.858 135.619-112.333 243.507-0.102 7.066 0.184 13.844 0.758 20.378-19.395 3.133-39.281 5.14-59.535 5.878v-673.505c64.799 2.847 124.252 23.695 179.364 50.422v0zM530.207 857.6v-109.281c22.774-0.778 45.138-3.011 66.908-6.615 6.717 19.292 17.531 35.267 32.522 47.657 19.292 16.015 42.455 23.388 63.508 26.419-49.541 24.474-104.694 39.26-162.939 41.82v0zM108.524 374.804c6.676-74.22 46.121-139.96 92.918-194.212-8.376 36.7-9.093 84.48 7.537 145.326 14.234 51.999 48.886 94.372 85.545 139.264 50.565 61.85 102.83 125.809 104.141 220.959 0.061 4.362-0.041 8.581-0.287 12.636-166.953-40.612-303.329-173.711-289.853-323.973v0zM752.251 780.042c-19.886 1.966-71.66 4.444-99.533-18.801-8.417-7.004-14.889-16.015-19.415-26.911 125.932-30.454 228.823-107.090 280.904-206.561-20.419 103.219-79.729 192.614-161.956 252.273v0zM915.476 374.804c13.476 150.262-122.88 283.341-289.833 323.953-0.246-4.055-0.348-8.274-0.287-12.636 1.29-95.15 53.576-159.13 104.141-220.959 36.659-44.872 71.291-87.265 85.524-139.264 16.65-60.846 15.933-108.626 7.557-145.326 46.797 54.272 86.241 120.013 92.897 194.232v0zM311.378 88.822c55.296-26.419 117.637-47.575 182.436-50.442v673.526c-20.275-0.737-40.161-2.744-59.535-5.878 0.573-6.533 0.86-13.312 0.758-20.378-1.475-107.889-60.375-179.917-112.333-243.507-34.161-41.8-66.949-81.142-78.623-125.85-42.742-163.553 66.212-226.939 67.297-227.471v0z" />
<glyph unicode="&#xe927;" glyph-name="books" d="M244.49 857.6h-91.873c-25.149 0-45.527-20.398-45.527-45.548v-728.105c0-25.149 20.378-45.548 45.527-45.548h91.853c25.17 0 45.548 20.398 45.548 45.568v728.084c0 25.149-20.378 45.548-45.527 45.548zM249.057 141.189h-101.028c-10.117 0-18.371 8.233-18.371 18.391 0 10.117 8.253 18.35 18.371 18.35h101.048c10.158 0 18.371-8.233 18.371-18.35 0-10.158-8.233-18.391-18.391-18.391zM249.057 718.029h-101.028c-10.117 0-18.371 8.212-18.371 18.391 0 10.138 8.253 18.35 18.371 18.35h101.048c10.158 0 18.371-8.212 18.371-18.35 0-10.179-8.233-18.391-18.391-18.391zM457.81 857.6h-91.853c-25.17 0-45.548-20.398-45.548-45.548v-728.105c0-25.17 20.378-45.568 45.548-45.568h91.853c25.17 0 45.548 20.398 45.548 45.568v728.105c-0.020 25.149-20.398 45.548-45.548 45.548zM462.377 141.189h-101.069c-10.097 0-18.35 8.233-18.35 18.391 0 10.117 8.253 18.35 18.35 18.35h101.069c10.158 0 18.371-8.233 18.371-18.35 0.020-10.158-8.212-18.391-18.371-18.391zM462.377 718.029h-101.069c-10.097 0-18.35 8.212-18.35 18.391 0 10.138 8.253 18.35 18.35 18.35h101.069c10.158 0 18.371-8.212 18.371-18.35 0.020-10.179-8.212-18.391-18.371-18.391zM645.345 764.744h-81.285c-16.753 0-30.331-13.599-30.331-30.351v-665.62c0-16.753 13.578-30.351 30.331-30.351h81.285c16.753 0 30.351 13.599 30.351 30.351v665.6c0 16.773-13.599 30.372-30.351 30.372zM632.443 141.189h-55.501c-10.138 0-18.35 8.233-18.35 18.391 0 10.117 8.212 18.35 18.35 18.35h55.501c10.158 0 18.391-8.233 18.391-18.35 0-10.158-8.233-18.391-18.391-18.391zM916.664 83.108l-69.55 535.859c-2.13 16.63-17.388 28.385-33.997 26.194l-80.63-10.445c-16.63-2.15-28.365-17.408-26.173-33.997l69.509-535.9c2.13-16.609 17.428-28.324 34.017-26.194l80.609 10.486c16.63 2.109 28.365 17.367 26.214 33.997zM864.42 149.381l-55.050-7.168c-10.035-1.27-19.272 5.796-20.582 15.872-1.29 10.035 5.796 19.272 15.852 20.562l55.050 7.168c10.035 1.27 19.272-5.796 20.582-15.831 1.331-10.076-5.755-19.272-15.852-20.603z" />
<glyph unicode="&#xe928;" glyph-name="calendar" d="M145.428 628.695v-590.295h733.143v590.295h-733.143zM500.060 168.94h-66.806v213.545h-82.801v50.319c11.592-0.328 22.835 0.532 33.669 2.56 10.793 2.048 20.541 5.632 29.143 10.834 8.643 5.161 15.913 11.981 21.873 20.46 5.939 8.458 9.851 18.985 11.756 31.519h53.166v-329.236zM673.505 168.94h-66.806v213.545h-82.76v50.319c11.592-0.328 22.815 0.532 33.628 2.56 10.813 2.048 20.541 5.632 29.184 10.834 8.602 5.161 15.872 11.981 21.852 20.46 5.939 8.458 9.851 18.985 11.756 31.519h53.146v-329.236zM652.227 739.123c-2.744 1.741-5.919 2.949-9.482 3.645-3.584 0.717-7.27 1.085-11.121 1.085h-41.636v-47.391h45.65c8.069 0 14.336 2.15 18.883 6.513s6.82 10.363 6.82 18.043c0 4.485-0.84 8.172-2.499 11.121s-3.871 5.263-6.615 6.984zM648.786 764.641c4.547 3.645 6.799 9.093 6.799 16.404 0 4.854-0.758 8.704-2.273 11.51-1.556 2.806-3.666 4.977-6.369 6.513-2.662 1.536-5.775 2.519-9.277 2.97-3.523 0.43-7.27 0.676-11.244 0.676h-36.434v-43.561h36.434c10.363 0.020 17.797 1.864 22.364 5.489zM878.531 857.6h-733.102v-215.982h733.123v215.982zM434.381 802.734h-71.721v-43.561h62.915v-15.34h-62.915v-62.73h-18.227v136.991h89.948v-15.36zM549.704 681.083h-95.15v137.011h94.556v-15.36h-76.349v-43.561h71.188v-15.34h-71.188v-47.37h76.943v-15.38zM676.905 705.843c-1.802-4.71-4.465-8.909-7.987-12.554s-7.864-6.574-13.046-8.847c-5.181-2.232-11.182-3.359-17.94-3.359h-66.191v137.011h49.725c2.929 0 6.083-0.041 9.482-0.102s6.717-0.266 10.076-0.573c3.318-0.328 6.39-0.799 9.277-1.434s5.345-1.597 7.393-2.888c4.485-2.683 8.274-6.39 11.407-11.121 3.154-4.731 4.69-10.568 4.69-17.49 0-7.27-1.741-13.578-5.263-18.883-3.523-5.325-8.52-9.236-15.053-11.796v-0.389c8.458-1.802 14.909-5.632 19.374-11.51s6.697-13.066 6.697-21.484c0.020-4.977-0.86-9.83-2.642-14.582z" />
<glyph unicode="&#xe929;" glyph-name="candles" d="M346.911 857.6c0 0-208.343-245.289 0-334.602 208.404 89.313 0 334.602 0 334.602zM226.816 474.87h240.251v-436.47h-240.251v436.47zM677.028 857.6c0 0-208.261-245.289 0-334.602 208.445 89.313 0 334.602 0 334.602zM556.995 474.87h240.189v-436.47h-240.189v436.47z" />
<glyph unicode="&#xe92a;" glyph-name="coins" d="M514.437 492.913c-154.563 0-285.532 46.51-329.196 110.633h-0.492v-71.598c0-87.142 145.469-157.676 324.956-157.676 179.446 0 325.079 70.533 325.079 157.676v60.498c-50.77-58.307-174.879-99.533-320.348-99.533zM514.437 324.936c-154.563 0-285.532 46.531-329.196 110.776h-0.492v-71.721c0-87.020 145.469-157.614 324.956-157.614 179.446 0 325.079 70.595 325.079 157.614v60.477c-50.77-58.307-174.879-99.533-320.348-99.533zM514.437 156.959c-154.563 0-285.532 46.653-329.196 110.797h-0.492v-71.741c0-86.999 145.469-157.614 324.956-157.614 179.446 0 325.079 70.615 325.079 157.614v60.518c-50.77-58.348-174.879-99.574-320.348-99.574zM839.25 699.904c0-86.897-145.388-157.491-324.813-157.491-179.507 0-324.956 70.595-324.956 157.491 0 87.204 145.449 157.696 324.956 157.696 179.446 0 324.813-70.492 324.813-157.696zM583.291 615.219c-8.663-5.98-23.45-11.899-42.168-11.899-23.081 0-43.397 8.786-57.631 25.293-10.711 11.919-17.9 28.324-20.46 48.783h-17.695v13.865h16.343c0 1.352 0 2.867 0 4.239 0 4.547 0.246 8.806 0.553 12.841h-16.896v14.090h18.903c3.441 19.948 11.899 36.291 23.327 47.964 14.418 15.094 32.809 23.47 56.136 23.47 16.63 0 29.676-4.751 37.663-9.032l-5.673-18.596c-7.025 4.178-18.964 7.864-31.744 7.864-15.299 0-27.73-5.427-37.56-15.585-8.335-8.233-14.152-21.033-16.896-36.065h79.176v-14.090h-81.797c-0.246-3.809-0.471-7.987-0.471-11.899 0-1.823 0-3.133 0-5.181h82.289v-13.865h-80.282c2.171-16.527 7.864-28.672 15.606-37.212 10.465-10.998 24.658-16.425 39.956-16.425 15.094 0 28.017 5.693 34.611 9.359l4.71-17.92z" />
<glyph unicode="&#xe92b;" glyph-name="cup" d="M758.723 689.807c-1.7 0-3.277-0.164-4.936-0.246v79.217h-552.714v-434.278c0-49.050 39.752-88.822 88.842-88.822h375.050c49.070 0 88.822 39.772 88.822 88.822v29.88c1.659-0.041 3.236-0.266 4.936-0.266 89.784 0 162.857 73.032 162.857 162.857s-73.073 162.836-162.857 162.836zM758.723 403.62c-1.7 0-3.277 0.164-4.936 0.266v246.231c1.659 0.041 3.236 0.246 4.936 0.246 68.055 0 123.372-55.337 123.372-123.372s-55.296-123.372-123.372-123.372zM102.4 190.341h750.121v-63.14h-750.121v63.14z" />
<glyph unicode="&#xe92c;" glyph-name="cutlery" d="M728.248 480.645v308.306c0 37.929-30.761 68.649-68.649 68.649-37.97 0-68.69-30.72-68.69-68.649v-428.544h45.65v-276.029c0-18.248 10.67-34.017 26.071-41.431 0.676-0.348 1.331-0.635 2.048-0.942 1.311-0.573 2.765-1.085 4.198-1.536 4.321-1.331 8.97-2.068 13.681-2.068 4.772 0 9.359 0.737 13.681 2.089 1.434 0.451 2.847 0.963 4.239 1.536 0.676 0.307 1.352 0.594 2.007 0.942 15.442 7.414 26.071 23.204 26.071 41.431v390.881c0 1.802-0.164 3.584-0.307 5.366zM477.942 857.6c-8.704 0-15.79-7.045-15.79-15.749v-186.9h-24.044v186.9c0 8.704-7.045 15.749-15.77 15.749-8.684 0-15.77-7.045-15.77-15.749v-186.9h-24.064v186.9c0.041 8.704-7.004 15.749-15.749 15.749-8.684 0-15.729-7.045-15.729-15.749v-186.9h-24.084v186.9c0 8.704-7.045 15.749-15.77 15.749s-15.77-7.045-15.77-15.749v-249.405c0-31.867 22.077-58.532 51.773-65.659v-442.409c0-25.416 20.603-45.998 45.978-45.998s45.998 20.582 45.998 45.998v441.836c31.068 6.062 54.477 33.403 54.477 66.232v249.405c0.041 8.704-6.984 15.749-15.688 15.749z" />
<glyph unicode="&#xe92d;" glyph-name="dice" d="M792.248 857.6h-560.497c-71.434 0-129.352-57.958-129.352-129.372v-560.497c0-71.393 57.917-129.331 129.352-129.331h560.476c71.455 0 129.372 57.938 129.372 129.331v560.497c0 71.414-57.917 129.372-129.352 129.372zM461.722 223.908c-48.005-47.985-125.829-48.005-173.773 0-48.005 48.005-48.005 125.768 0 173.752 47.964 48.005 125.788 48.005 173.773 0s48.005-125.747 0-173.752zM736.051 498.299c-47.964-47.985-125.788-47.985-173.773 0s-47.944 125.788 0 173.773c48.005 47.985 125.829 47.985 173.773 0 48.005-48.005 48.005-125.809 0-173.773z" />
<glyph unicode="&#xe92e;" glyph-name="doc" d="M680.632 857.6h-497.91v-819.2h658.555v819.2h-160.645zM758.129 121.549h-492.257v652.882h492.237v-652.882zM360.038 700.273h303.923v-38.748h-303.923v38.748zM360.038 584.049h303.923v-38.748h-303.923v38.748zM360.038 467.825h303.923v-38.748h-303.923v38.748zM360.038 351.601h303.923v-38.728h-303.923v38.728zM360.038 234.476h191.037v-38.748h-191.037v38.748z" />
<glyph unicode="&#xe92f;" glyph-name="email" d="M919.982 709.325c-5.878 24.863-28.078 43.418-54.743 43.418h-706.417c-26.644 0-48.824-18.555-54.804-43.418l408.003-315.167 407.962 315.167zM532.705 324.567c-6.083-4.69-13.332-7.066-20.685-7.066-7.291 0-14.602 2.376-20.685 7.066l-388.936 300.483v-425.37c0-31.191 25.272-56.463 56.422-56.463h706.417c31.13 0 56.361 25.252 56.361 56.463v425.37l-388.895-300.483z" />
<glyph unicode="&#xe930;" glyph-name="euro" d="M859.832 150.815c-29.061-34.857-83.128-76.82-160.317-98.55-95.642-27.136-190.116-14.254-268.186 37.396-58.143 36.782-106.885 96.256-141.742 177.869l-73.011-20.582-16.159 57.344 67.441 19.21c-1.413 5.304-3.277 11.633-4.69 17.080-5.427 19.19-9.318 37.007-13.128 54.067l-69.489-19.702-16.404 58.47 77.926 21.975c-9.339 86.18 7.209 164.106 40.448 225.649 41.943 79.073 108.134 135.393 204.513 162.57 69.222 19.702 128.737 15.421 166.871 6.554l-1.884-83.743c-33.997 9.339-87.572 10.465-140.616-4.424-63.427-17.838-108.38-54.845-137.298-108.401-24.658-43.95-33.505-103.219-27.709-168.919l327.578 92.59 16.302-58.225-338.063-95.662c3.564-16.159 7.086-33.71 11.756-50.115 1.884-7.209 3.523-12.636 5.796-21.217l340.705 96.379 16.179-57.364-331.981-93.88c28.037-65.946 65.946-109.629 107.868-135.905 56.095-33.219 121.426-39.281 184.586-21.258 62.423 17.572 109.281 56.627 132.137 79.114l40.571-68.321z" />
<glyph unicode="&#xe931;" glyph-name="info" d="M251.29 702.996h-51.569v-664.596h469.934v51.528h-418.365zM328.561 780.288h-51.548v-664.596h469.955v51.528h-418.406zM354.324 857.6v-664.596h469.955v664.596h-469.955zM560.64 701.46c8.233 8.253 18.268 12.37 29.983 12.37 11.53 0 21.443-4.096 29.716-12.37 8.253-8.274 12.39-18.268 12.39-30.003 0-11.715-4.137-21.729-12.39-29.962-8.274-8.274-18.186-12.411-29.716-12.411-11.715 0-21.75 4.137-29.983 12.411-8.274 8.233-12.39 18.248-12.39 29.962 0 11.756 4.116 21.729 12.39 30.003zM654.316 336.712h-130.068v13.066c9.585 1.618 16.179 3.994 19.722 7.209 5.345 4.792 8.008 13.414 8.008 25.866v160.461c0 11.080-1.884 18.657-5.612 22.692s-11.1 7.025-22.098 8.991v13.066h104.735v-207.36c0-11.899 1.761-19.558 5.345-22.917 3.543-3.379 10.22-6.042 19.988-8.008v-13.066z" />
<glyph unicode="&#xe932;" glyph-name="light" d="M692.675 446.341c0 99.779-80.835 180.634-180.675 180.634-99.82 0-180.634-80.855-180.634-180.634 0-1.249 0.061-2.376 0.061-3.625 0-0.225-0.061-0.225-0.061-0.328 0-3.379 0.205-8.11 0.84-14.234 0.676-6.328 1.638-12.493 2.97-18.739 4.813-25.149 15.483-58.573 36.925-87.368 29.204-39.158 43.991-81.838 47.636-93.327v-17.203c0-10.506 8.356-18.739 18.739-18.739h146.207c10.342 0 18.698 8.233 18.698 18.739v14.275c0 0 14.602 50.586 48.558 96.276 20.603 27.689 31.15 59.72 36.291 84.357 2.028 8.663 3.277 17.49 3.932 26.481 0.369 3.85 0.471 7.127 0.471 9.503v0c0 1.249 0.041 2.601 0.041 3.932zM587.551 161.792h-151.081c-10.322 0-18.637-8.356-18.637-18.842v-56.668c0-10.568 8.315-18.739 18.637-18.739h20.419c7.905-16.937 29.614-29.143 55.112-29.143 25.559 0 47.288 12.227 55.153 29.164h20.398c10.281 0 18.657 8.172 18.657 18.739v56.668c0.020 10.465-8.376 18.821-18.657 18.821zM512 685.015c-17.92 0-32.297 14.541-32.297 32.256v107.807c0 17.961 14.377 32.522 32.297 32.522 17.961 0 32.358-14.561 32.358-32.522v-107.807c0-17.715-14.397-32.256-32.358-32.256zM320.246 602.481c-8.294 0-16.527 3.052-22.794 9.339l-76.349 76.308c-12.616 12.657-12.616 33.075 0 45.855 12.739 12.493 33.137 12.493 45.855 0l76.247-76.206c12.554-12.78 12.554-33.178 0-45.957-6.39-6.267-14.582-9.339-22.958-9.339zM703.754 602.481c-8.315 0-16.527 3.052-22.917 9.339-12.554 12.78-12.554 33.178 0 45.957l76.268 76.206c12.698 12.493 33.137 12.493 45.773 0 12.636-12.78 12.636-33.198 0-45.855l-76.268-76.288c-6.287-6.287-14.561-9.359-22.856-9.359z" />
<glyph unicode="&#xe933;" glyph-name="night" d="M604.201 839.823c-37.888 11.53-76.145 17.265-113.848 17.777 148.828-97.055 222.29-284.017 167.813-462.5s-219.812-292.516-397.455-289.956c31.58-20.603 66.458-37.233 104.346-48.804 216.351-66.048 445.256 55.808 511.304 272.2 66.028 216.31-55.828 445.256-272.159 511.283zM291.922 697.651l50.135-101.581 112.128-16.261-81.121-79.114 19.128-111.616-100.27 52.695-100.27-52.695 19.149 111.616-81.101 79.114 112.108 16.261z" />
<glyph unicode="&#xe934;" glyph-name="pet" d="M478.74 670.988c11.538-82.081-23.766-154.899-78.853-162.642s-109.097 52.52-120.634 134.601c-11.538 82.081 23.766 154.899 78.853 162.642s109.097-52.52 120.634-134.601zM286.523 498.346c25.794-70.894 8.146-142.393-39.418-159.699s-107.032 26.136-132.826 97.030c-25.794 70.894-8.146 142.393 39.418 159.699s107.032-26.136 132.826-97.030zM512 491.704c0 0-213.647-20.91-213.647-264.11s139.51-90.726 139.51-90.726 20.91 35.594 74.117 35.594 74.076-35.594 74.076-35.594 139.51-152.474 139.51 90.726c0.041 243.18-213.565 264.11-213.565 264.11zM545.247 670.994c11.538 82.081 65.538 142.346 120.614 134.604s90.37-80.558 78.833-162.639c-11.538-82.081-65.538-142.346-120.614-134.604s-90.37 80.558-78.833 162.639zM737.485 498.319c-25.846-70.861-8.192-142.377 39.404-159.683 47.555-17.326 107.049 26.112 132.792 97.034 25.887 70.881 8.192 142.377-39.404 159.703-47.555 17.306-106.988-26.153-132.792-97.055z" />
<glyph unicode="&#xe935;" glyph-name="shell" d="M512.020 63.508c-0.86-0.041-1.638-0.082-2.499-0.123 1.597 0.041 2.499 0.123 2.499 0.123zM388.035 141.66c-57.242 85.115-59.781 65.597-80.835 39.076s-42.004-72.069-40.571-86.282c26.358-9.953 95.068-38.973 242.893-31.089-12.452-0.266-70.676 2.765-121.487 78.295zM914.78 488.305l-269.066-109.363 254.628 158.392c-29.389 82.268-71.373 141.906-116.982 185.18l-183.685-296.141 140.349 331.981c-73.359 52.531-148.705 69.857-191.775 75.571l-36.229-379.617-36.229 379.638c-43.090-5.714-118.415-23.040-191.775-75.571l140.308-331.981-183.685 296.141c-45.609-43.274-87.552-102.912-116.941-185.18l254.587-158.392-269.066 109.363c-28.508-127.939 41.533-158.228 41.533-158.228s171.684-41.882 262.39-152.146c90.726-110.285 98.857-79.565 98.857-79.565s8.11-30.72 98.816 79.565c90.767 110.264 262.39 152.146 262.39 152.146s70.083 30.269 41.574 158.208zM514.478 63.386c-0.819 0.041-1.638 0.082-2.458 0.123 0 0 0.86-0.082 2.458-0.123zM636.006 141.66c-50.79-75.53-109.036-78.582-121.528-78.275 147.886-7.905 216.576 21.115 242.934 31.089 1.372 14.213-19.558 59.761-40.612 86.282s-23.593 46.039-80.794-39.096z" />
<glyph unicode="&#xe936;" glyph-name="sofa" d="M130.703 243.2h56.484c15.585 0 28.201 12.595 28.201 28.18h593.285c0-15.585 12.595-28.18 28.283-28.18h56.484c15.544 0 28.16 12.595 28.16 28.16v240.189c0 15.585-12.616 28.283-28.18 28.283h-56.484c-15.688 0-28.283-12.698-28.283-28.283v-155.402h-593.265v155.402c0 15.585-12.616 28.283-28.201 28.283h-56.484c-15.688 0-28.303-12.698-28.303-28.283v-240.189c0-15.565 12.616-28.16 28.303-28.16v0zM472.494 506.9c9.605 0 18.514-2.806 26.214-7.311v126.689c0 14.643-11.817 26.522-26.522 26.522h-185.59c-14.684 0-26.563-11.878-26.563-26.522v-126.874c7.967 4.669 17.142 7.516 27.054 7.516h185.405zM498.729 453.878c0 14.643-11.694 26.563-26.317 26.563h-185.303c-14.623 0-27.054-11.919-27.054-26.563v-53.023h238.674v53.023zM737.71 506.9c9.646 0 18.596-2.806 26.276-7.311v126.689c0 14.643-11.878 26.522-26.501 26.522h-185.651c-14.725 0-26.522-11.878-26.522-26.522v-126.874c8.008 4.669 17.121 7.516 27.034 7.516h185.364zM763.986 453.878c0 14.643-11.715 26.563-26.358 26.563h-185.283c-14.664 0-27.034-11.919-27.034-26.563v-53.023h238.674v53.023z" />
<glyph unicode="&#xe937;" glyph-name="star" d="M920.289 542.802c-3.092 9.626-11.407 16.63-21.463 18.104l-250.757 36.434-112.23 227.246c-8.909 18.166-38.707 18.166-47.657 0l-112.169-227.246-250.839-36.434c-10.035-1.454-18.35-8.479-21.463-18.104-3.154-9.626-0.532-20.193 6.717-27.279l181.453-176.845-42.844-249.815c-1.7-9.933 2.396-20.029 10.588-25.969 8.233-6.021 19.067-6.758 28.017-2.089l224.379 117.842 224.338-117.842c3.912-2.048 8.11-3.031 12.39-3.031 5.509 0 10.998 1.7 15.626 5.12 8.172 5.939 12.308 16.015 10.588 25.969l-42.844 249.815 181.453 176.845c7.25 7.086 9.871 17.674 6.717 27.279z" />
<glyph unicode="&#xe938;" glyph-name="user" d="M675.635 625.705c0-109.302-73.236-197.919-163.635-197.919-90.358 0-163.594 88.617-163.594 197.919 0 109.158 73.236 197.775 163.594 197.775 90.399 0 163.635-88.617 163.635-197.775zM921.6 123.412c-39.199 88.883-96.358 163.369-164.966 216.433 0 0.123 0 0.123 0 0.123-0.553 0.553-1.352 0.983-2.089 1.372-15.196 11.694-30.884 22.18-47.206 31.58-2.99 1.782-5.878 3.543-8.888 5.304-17.797 9.667-35.922 18.657-54.845 25.58v0h-0.123c-37.437-29.389-82.637-46.674-131.523-46.674-48.722 0-94.044 17.306-131.482 46.674v0h-0.123c-18.801-6.922-36.925-15.913-54.723-25.58-3.031-1.761-6.042-3.523-8.991-5.304-16.2-9.4-31.99-19.886-47.084-31.58-0.717-0.41-1.516-0.819-2.191-1.372 0 0 0.164 0 0.164-0.123-68.567-53.084-125.768-127.549-165.13-216.433 98.673-25.457 204.595-41.8 315.167-47.903 0 0 0 0 0-0.143 31.048-1.659 62.444-2.867 94.433-2.867s63.447 1.208 94.638 2.867c0 0.143 0 0.143 0 0.143 110.531 6.103 216.433 22.446 314.962 47.903z" />
<glyph unicode="&#xe939;" glyph-name="wii" d="M588.759 857.6h-153.518c-22.528 0-40.714-18.248-40.714-40.714v-737.751c0-22.487 18.207-40.714 40.714-40.714h153.518c22.487 0 40.714 18.248 40.714 40.714v737.731c0 22.487-18.227 40.735-40.714 40.735zM446.28 737.464h42.598v42.619h43.192v-42.619h42.639v-43.172h-42.639v-42.619h-43.192v42.619h-42.598v43.172zM443.29 443.167c-15.114 0-27.361 12.247-27.361 27.341s12.247 27.361 27.361 27.361 27.32-12.268 27.32-27.361-12.206-27.341-27.32-27.341zM510.484 115.876c-17.408 0-31.56 14.131-31.56 31.56 0 17.449 14.152 31.58 31.56 31.58 17.449 0 31.56-14.131 31.56-31.58 0-17.428-14.131-31.56-31.56-31.56zM510.484 202.404c-17.408 0-31.56 14.131-31.56 31.58 0 17.428 14.152 31.539 31.56 31.539 17.449 0 31.56-14.111 31.56-31.539s-14.131-31.58-31.56-31.58zM483.164 470.508c0 15.094 12.247 27.361 27.32 27.361 15.114 0 27.361-12.268 27.361-27.361s-12.247-27.341-27.361-27.341c-15.094 0-27.32 12.247-27.32 27.341zM510.525 557.343c-20.726 0-37.519 16.773-37.519 37.478s16.794 37.499 37.519 37.499c20.685 0 37.478-16.773 37.478-37.478s-16.794-37.499-37.478-37.499zM580.71 443.167c-15.114 0-27.361 12.247-27.361 27.341s12.247 27.361 27.361 27.361c15.073 0 27.32-12.268 27.32-27.361s-12.227-27.341-27.32-27.341z" />
<glyph unicode="&#xe93a;" glyph-name="ball" d="M511.98 857.58c-226.181 0-409.58-183.398-409.58-409.58 0-226.222 183.398-409.6 409.58-409.6 226.222 0 409.62 183.378 409.62 409.6 0 226.181-183.398 409.58-409.62 409.58zM844.186 516.444l-13.66-33.034h-39.793l-22.774 43.254 19.374 43.213 31.846-5.652 25.006-47.78zM717.844 618.865l-19.333-36.413-48.968 4.567-27.3 46.653 20.48 39.834 45.548-9.114 29.573-45.527zM548.229 829.44l-12.493-23.9h-38.728l-18.207 23.9h69.427zM493.629 755.466l43.233-2.253 25.047-36.475-20.48-36.372-52.388-1.147-21.647 37.519 26.235 38.728zM380.908 810.107h31.908l12.493-28.467-29.594-34.14-40.98-2.294-7.967 25.047 34.14 39.854zM341.053 665.539l46.694 7.987 21.627-42.127-28.488-45.507-47.8-1.208-20.48 36.454 28.447 44.401zM146.391 408.269h-28.426v69.468h29.594l12.493-35.308-13.66-34.161zM201.032 564.224h36.434l17.080-35.308-20.48-42.086h-37.54l-18.227 32.973c2.232 3.42 22.733 44.421 22.733 44.421zM181.719 362.721l12.513 37.581 37.581-2.273 25.006-45.527-15.933-36.434-36.413 4.547-22.753 42.107zM272.794 180.613l-34.161 11.387-29.614 37.581 5.693 27.3 37.56-9.114 27.32-42.107-6.799-25.047zM254.566 649.605l-38.113-9.114-8.561 26.194 38.113 44.38 27.914 9.073 10.199-29.553-29.553-40.98zM326.287 487.977h51.241l25.006-50.074-25.006-45.568h-47.841l-27.3 48.968 23.9 46.674zM314.9 261.448l19.354 38.707 48.947-3.42 25.027-45.568-17.080-37.519-46.653 3.379-29.594 44.421zM410.522 87.306l-28.488 3.379-36.434 34.161 12.554 29.594 38.666-4.567 30.74-40.96-17.039-21.606zM477.635 67.953l17.080 23.859h41.001l13.681-25.047-71.762 1.188zM536.863 144.2h-43.233l-26.214 35.308 21.647 35.308h52.388l21.627-35.308-26.214-35.308zM540.303 292.127l-51.261-1.106-28.447 45.548 25.006 52.388h60.355l21.627-48.968-27.279-47.862zM543.683 493.65h-56.914l-26.153 44.401 27.32 51.241h54.62l28.488-50.094-27.361-45.548zM616.53 807.854h27.32l42.107-42.127-12.493-20.521-43.233 2.294-27.341 34.14 13.64 26.214zM654.111 95.232l-37.581-3.42-13.619 21.647 27.3 35.328 42.107 3.359 9.114-23.9-27.32-33.014zM683.745 217.027l-46.715-2.232-15.892 37.54 28.447 44.401 50.074 4.547 13.681-37.56-29.594-46.694zM703.037 391.188l-46.633 2.273-27.3 46.694 25.006 47.8 50.074 1.126 25.047-48.927-26.194-48.968zM749.691 721.306l34.181-12.513 29.573-38.707-6.799-30.72-34.181 7.987-32.952 42.107 10.179 31.846zM787.313 195.42l-41.001-15.913-5.714 29.532 28.508 39.875 36.413 7.987 6.799-28.508-25.006-32.973zM818.033 321.741l-32.993-4.547-18.248 38.728 26.214 45.527 37.54-3.42 13.681-35.308-26.194-40.98zM876.073 409.416l-13.64 29.573 13.64 41.001 17.080-1.147v-69.448h-17.080z" />
<glyph unicode="&#xe93b;" glyph-name="booking" d="M511.98 363.233c-67.4 0-122.040-54.641-122.040-122.061 0-67.4 54.641-122.040 122.040-122.040 67.42 0 122.102 54.641 122.102 122.040 0 67.42-54.682 122.061-122.102 122.061zM490.557 174.961l-61.788 59.187 31.724 31.724 32.809-32.707 74.138 74.138 27.73-27.73-104.612-104.612zM512.020 857.6c-122.307 0-221.778-99.512-221.778-221.798 0-23.572 19.067-42.66 42.66-42.66 23.552 0 42.66 19.087 42.66 42.66 0 75.244 61.235 136.438 136.458 136.438 74.916 0 135.946-60.744 136.376-135.578 0 0 6.881-104.1-148.234-156.815l-116.92-44.831c0 0-93-38.236-93-125.891v-218.911c0-28.59 23.163-51.794 51.753-51.794h339.968c28.631 0 51.794 23.204 51.794 51.794v546.447c-0.43 121.917-99.758 220.938-221.737 220.938zM511.98 91.034c-82.924 0-150.118 67.236-150.118 150.139 0 82.924 67.195 150.159 150.118 150.159 82.944 0 150.18-67.236 150.18-150.159 0-82.903-67.236-150.139-150.18-150.139z" />
<glyph unicode="&#xe93c;" glyph-name="cleanset" d="M568.668 687.288v31.805h33.608v138.506h-180.511v-138.527h33.608v-31.805h-43.336c0 0-159.99-173.343-159.99-648.888h519.967c0 475.546-159.99 648.888-159.99 648.888h-43.356zM721.306 88.474h-418.611c2.089 81.203 9.073 151.88 18.719 212.951h381.481c9.605-61.563 16.404-132.198 18.412-212.951zM692.449 360.182h-164.147v218.296h93.204c23.183-47.084 50.627-118.211 70.943-218.296z" />
<glyph unicode="&#xe93d;" glyph-name="comment" d="M876.032 776.54h-728.044c-25.17 0-45.568-20.419-45.568-45.588v-438.948c0-25.17 20.378-45.568 45.568-45.568h422.973l126.956-126.996 126.976 126.996h51.118c25.129 0 45.588 20.398 45.588 45.568v438.968c0.020 25.149-20.439 45.568-45.568 45.568z" />
<glyph unicode="&#xe93e;" glyph-name="ethernet" d="M794.685 857.6h-565.371c-70.083 0-126.915-56.791-126.915-126.915v-565.33c0-70.124 56.832-126.956 126.915-126.956h565.35c70.124 0 126.935 56.832 126.935 126.956v565.33c0 70.124-56.812 126.915-126.915 126.915zM823.542 165.356c0-15.954-12.943-28.877-28.856-28.877h-565.371c-15.913 0-28.856 12.923-28.856 28.877v484.557c0 15.892 12.943 28.856 28.856 28.856h127.201v80.773h310.968v-80.753h127.201c15.913 0 28.856-12.964 28.856-28.856v-484.577z" />
<glyph unicode="&#xe93f;" glyph-name="eye" d="M906.404 465.551c-124.846 144.63-256.881 218.685-392.561 220.283-1.044 0-2.13 0.164-3.092 0.164l-0.614-0.041c-0.307 0-0.635 0.041-0.901 0.041-233.533 0-389.1-213.279-395.653-222.331l-11.182-15.688 11.162-15.667c6.595-9.032 162.222-222.29 395.653-222.31h0.061c0.328 0 0.594 0.041 0.84 0.041l0.614-0.041c0.983 0 1.966 0.164 2.99 0.164 135.66 1.597 267.756 75.592 392.663 220.283l15.217 17.531-15.196 17.572zM695.050 447.98c0-100.557-81.121-182.477-181.391-184.054-1.167 0-2.314-0.123-3.523-0.123-101.233 0.328-183.562 82.842-183.562 184.177 0 101.376 82.33 183.869 183.562 184.238 1.229 0 2.437-0.143 3.625-0.143 100.168-1.597 181.289-83.517 181.289-184.095zM169.759 448.020c21.279 25.62 69.222 77.885 136.008 120.197-20.808-35.328-32.952-76.329-32.952-120.259 0-43.745 12.042-84.685 32.788-119.89-66.621 42.271-114.565 94.392-135.844 119.951zM718.705 332.534c19.149 34.243 30.106 73.544 30.106 115.446 0 41.923-10.957 81.265-30.044 115.487 44.155-29.266 88.166-67.707 131.4-115.487-43.254-47.759-87.245-86.241-131.461-115.446zM476.795 552.878c24.064-7.107 41.841-29.164 41.841-55.603 0-32.154-26.112-58.245-58.327-58.245-25.928 0-47.596 17.080-55.173 40.53-2.99-10.035-4.69-20.623-4.69-31.601 0-60.908 49.418-110.264 110.346-110.264 60.969 0 110.244 49.357 110.244 110.264 0 60.948-49.275 110.326-110.244 110.326-11.878 0-23.224-1.905-33.997-5.407z" />
<glyph unicode="&#xe940;" glyph-name="feet" d="M526.377 853.012c41.677 10.076 37.745-58.491 0.553-54.456-29.041 3.113-23.757 48.804-0.553 54.456zM664.31 832.061c25.313 3.994 45.793-22.569 43.008-53.207-2.191-23.47-22.467-50.135-38.687-54.538-56.607-15.258-44.933 101.376-4.321 107.745zM474.214 848.179c30.966 7.188 27.116-43.418 4.669-45.629-27.935-2.724-24.74 40.96-4.669 45.629zM422.42 832.471c28.201 7.844 27.566-39.301 3.359-40.202-21.586-0.84-21.115 35.246-3.359 40.202zM793.416 387.564c1.27 37.335-56.566 21.832-46.572-9.175 7.844-24.248 45.855-11.674 46.572 9.175zM784.323 444.785c3.011 46.408-73.216 20.111-63.549-16.998 1.29-4.956 6.042-11.182 9.032-12.882 21.217-12.124 53.371 13.005 54.518 29.88zM751.104 501.617c-1.044 22.282-27.32 35.103-53.002 27.279-19.62-6.021-38.81-28.058-39.69-42.701-3.031-50.995 94.495-20.378 92.692 15.421zM798.536 342.2c0.635 27.689-41.861 15.421-39.793-4.116 2.662-24.289 39.363-13.885 39.793 4.116zM794.317 295.178c1.679 25.477-38.461 16.568-34.939-4.239 3.154-18.596 33.812-11.817 34.939 4.239zM592.773 856.084c51.405 14.213 39.67-77.496-4.28-75.325-5.96 0.307-14.029 4.198-16.609 7.148-18.534 20.992 2.212 62.996 20.89 68.178zM452.772 765.809c11.428 1.27 30.536 3.072 46.735 2.519 59.064-2.212 119.89-33.853 136.294-76.575 10.076-26.194 0.532-55.48-10.875-73.277-10.875-17.080-30.618-37.745-45.486-46.060-12.513-7.004-37.683-17.756-50.77-13.496-7.598 2.437-18.555 28.979-24.003 35.246-10.076 11.694-23.941 25.293-48.599 23.613-35.717-2.499-59.044-35.062-67.85-61.972-9.626-29.245-7.352-67.809 1.864-97.997 5.55-18.35 15.196-32.276 14.746-57.324-1.106-62.833-46.51-123.474-90.747-133.468-43.889-9.892-83.456 24.453-87.962 62.71-5.038 42.394 18.043 81.039 32.686 108.851 15.77 30.044 38.564 63.119 49.521 92.979 7.352 20.255 9.646 41.718 13.394 61.44 12.452 65.167 19.313 125.317 69.407 156.815 16.077 10.076 34.365 13.066 61.645 15.995zM732.037 309.268c-0.942 9.994-2.744 26.644-6.144 40.387-12.329 49.992-50.115 96.317-89.477 102.81-24.166 3.973-47.473-9.4-60.682-22.262-12.636-12.329-26.747-32.85-31.232-46.981-3.809-11.919-8.52-35.348-2.56-45.752 3.482-6.062 28.078-10.691 34.324-14.193 11.858-6.574 25.887-16.015 28.754-37.315 4.198-30.986-19.415-56.586-40.878-68.936-23.224-13.353-56.566-18.289-83.948-15.79-16.65 1.516-30.29 7.291-51.589 2.499-53.391-12.083-97.116-61.604-97.833-101.151-0.696-39.178 35.635-66.867 69.161-63.939 37.007 3.215 65.966 29.737 87.122 47.186 22.794 18.76 47.002 44.114 70.615 58.716 15.954 9.871 33.894 15.606 50.053 22.344 53.35 22.159 103.547 38.666 121.59 86.958 5.714 15.503 5.018 31.621 2.724 55.419z" />
<glyph unicode="&#xe941;" glyph-name="fridge" d="M705.864 857.6h-387.686c-22.2 0-40.243-18.043-40.243-40.264v-204.431h468.111v204.431c0.020 22.221-17.961 40.264-40.182 40.264zM357.601 659.599c0-9.114-7.393-16.466-16.466-16.466s-16.445 7.332-16.445 16.466v85.647c0 9.093 7.352 16.425 16.445 16.425 9.052 0 16.466-7.311 16.466-16.425v-85.647zM277.934 563.548v-484.905c0-22.221 18.043-40.264 40.243-40.264h387.686c22.221 0 40.202 18.043 40.202 40.264v484.925h-468.132zM357.601 427.663c0-9.052-7.393-16.466-16.466-16.466s-16.445 7.393-16.445 16.466v85.647c0 9.073 7.352 16.445 16.445 16.445 9.052 0 16.466-7.352 16.466-16.445v-85.647z" />
<glyph unicode="&#xe942;" glyph-name="hairdrier" d="M695.030 772.506c-75.121 0-144.568-28.836-186.88-77.353h-235.93c-5.489 0-9.953-4.465-9.953-9.974v-180.47c0-5.55 4.485-9.974 9.953-9.974h235.909c39.813-45.65 103.629-73.83 175.002-76.984l-7.905-26.829h-65.331c-5.489 0-9.974-4.485-9.974-9.953v-67.052c0-5.53 4.506-9.974 9.974-9.974h39.752l-49.295-167.69c-0.901-2.99-0.348-6.267 1.556-8.786s4.854-3.994 7.987-3.994h108.319c4.424 0 8.315 2.949 9.585 7.188l93.102 316.723c63.16 33.055 100.7 87.941 100.7 147.538 0 97.935-101.642 177.582-226.57 177.582zM235.438 694.62l-119.89 39.936c-3.052 1.044-6.39 0.512-8.991-1.352s-4.157-4.874-4.157-8.090v-260.321c0-3.236 1.536-6.246 4.137-8.11 1.72-1.27 3.768-1.905 5.857-1.905 1.024 0 2.109 0.184 3.133 0.492l119.89 39.936c4.076 1.352 6.82 5.181 6.82 9.482v180.47c0.020 4.321-2.724 8.11-6.799 9.462z" />
<glyph unicode="&#xe943;" glyph-name="handicap" d="M837.018 226.324l-125.809 206.336c-8.52 14.049-23.798 21.176-39.076 20.296-1.761 0.184-3.564 0.287-5.407 0.287h-180.163v54.948h139.51c17.592 0 31.846 14.254 31.846 31.867 0 17.551-14.234 31.887-31.846 31.887h-139.51v65.229c0 36.803-29.798 66.621-66.601 66.621h-0.84c-36.803 0-66.601-29.819-66.601-66.621v-222.802c0-2.478 0.164-4.936 0.43-7.414-0.287-2.109-0.43-4.239-0.43-6.41 0-29.143 23.593-52.716 52.716-52.716h257.413l101.192-166.072c12.329-20.214 38.687-26.624 58.88-14.254 20.255 12.227 26.665 38.605 14.295 58.819zM419.533 718.213c38.482 0 69.714 31.212 69.714 69.714 0.020 38.482-31.232 69.673-69.714 69.673-38.441 0-69.673-31.171-69.673-69.652 0-38.523 31.232-69.734 69.673-69.734zM664.904 292.291c-9.994-107.438-100.598-191.857-210.637-191.857-116.634 0-211.517 94.904-211.517 211.538 0 68.28 32.481 129.024 82.842 167.731v73.564c-86.159-46.080-144.876-136.97-144.876-241.295-0.020-150.835 122.696-273.572 273.551-273.572 117.473 0 217.846 74.424 256.553 178.565l-45.916 75.325z" />
<glyph unicode="&#xe944;" glyph-name="iron" d="M102.4 229.704h772.997c0 0 8.458 17.121 18.145 41.554h-791.142v-41.554zM875.397 439.48c23.204 85.033-62.362 226.796-62.362 226.796h-434.688v-79.38h274.043c38.625 0 69.919-31.314 69.919-69.939v-7.516c0-38.646-31.293-69.939-69.919-69.939h-43.438v39.69h-96.952v-39.69h-163.901c-147.415-0.020-245.699-154.972-245.699-154.972h796.221c23.081 62.136 45.937 154.952-23.224 154.952z" />
<glyph unicode="&#xe945;" glyph-name="key" d="M499.384 857.6c-80.118 0-145.428-65.229-145.367-145.367 0-61.542 38.154-113.848 92.303-135.066v-538.767h106.23v83.927h117.432l-0.082 41.984h-74.117v47.555h74.117l0.082 41.902h-117.432l-0.082 323.502c54.129 21.156 92.365 73.462 92.406 134.943-0.020 80.179-65.126 145.388-145.49 145.388zM551.526 756.183c0.061-28.795-23.286-52.204-52.204-52.204-28.692 0.061-52.060 23.409-51.999 52.204-0.061 28.795 23.347 52.244 52.060 52.183 28.795 0 52.204-23.388 52.142-52.183z" />
<glyph unicode="&#xe946;" glyph-name="lift" d="M474.235 380.723h-110.1c-3.031 0-5.489 2.478-5.489 5.509v193.7h-151.388c-2.13 0-4.055 1.208-4.977 3.092-0.881 1.925-0.635 4.157 0.676 5.796l211.948 266.813c2.089 2.601 6.513 2.601 8.602 0l211.948-266.793c1.29-1.638 1.556-3.871 0.635-5.796-0.922-1.905-2.867-3.092-4.936-3.092h-151.45v-193.7c0-3.052-2.396-5.53-5.468-5.53zM604.795 38.4c-1.659 0-3.297 0.778-4.301 2.089l-211.907 266.772c-1.27 1.659-1.536 3.912-0.635 5.816 0.922 1.925 2.826 3.092 4.915 3.092h151.409v193.7c0 3.031 2.478 5.509 5.489 5.509h110.121c3.031 0 5.509-2.458 5.509-5.509v-193.7h151.409c2.109 0 4.014-1.188 4.915-3.092 0.942-1.905 0.655-4.157-0.635-5.816l-211.988-266.793c-1.004-1.29-2.601-2.068-4.301-2.068z" />
<glyph unicode="&#xe947;" glyph-name="mapmarker" d="M512 857.6c-152.044 0-275.292-123.269-275.292-275.292 0-4.69 0.164-9.441 0.328-14.193v0c10.506-234.619 274.964-529.715 274.964-529.715s264.458 295.096 274.964 529.695v0c0.184 4.751 0.348 9.503 0.348 14.193-0.020 152.044-123.249 275.313-275.313 275.313zM512 389.878c-106.25 0-192.389 86.118-192.389 192.43 0 106.25 86.118 192.369 192.389 192.369 106.291 0 192.43-86.118 192.43-192.369 0-106.312-86.139-192.43-192.43-192.43z" />
<glyph unicode="&#xe948;" glyph-name="mask" d="M188.989 846.172h-86.589v-796.365h86.589v476.078h135.844l187.208 187.208 187.208-187.208h222.351v320.287h-732.611zM288.973 612.454h-99.983v147.149h247.112l-147.128-147.149zM835.052 612.454h-100.004l-147.169 147.169h247.153v-147.169z" />
<glyph unicode="&#xe949;" glyph-name="mouse" d="M600.76 589.271h-70.164v-248.197h-223.662v-186.429c0-64.205 52.081-116.265 116.265-116.265h177.562c64.225 0 116.306 52.060 116.306 116.265v318.382c0 64.205-52.081 116.244-116.306 116.244zM488.755 382.956v206.316h-65.556c-64.184 0-116.265-52.040-116.265-116.244v-90.071h181.821zM690.729 842.22c-2.847 10.752-14.213 17.592-25.231 14.725-10.916-2.888-17.592-14.193-14.766-25.108 0.41-1.659 9.482-40.878-8.765-69.448-10.342-16.261-28.406-26.87-53.637-31.519-37.089-6.861-64.594-23.695-81.818-50.156-22.221-34.017-20.255-73.175-17.736-91.443h41.841c-0.655 3.338-8.11 40.407 10.506 68.854 10.834 16.63 29.184 27.423 54.723 32.092 37.089 6.82 64.369 23.675 81.142 50.135 28.488 44.933 14.336 99.594 13.742 101.868z" />
<glyph unicode="&#xe94a;" glyph-name="movie" d="M719.032 313.119v-83.579l202.568-121.508v326.595zM132.772 434.627h557.036v-326.595h-557.036v326.595zM264.438 463.872c89.518 0 162.058 72.561 162.058 162.038 0 89.498-72.54 162.038-162.058 162.038-89.498 0-162.038-72.54-162.038-162.038 0-89.477 72.54-162.038 162.038-162.038zM351.949 697.508c15.401 0 27.873-12.452 27.873-27.832s-12.472-27.832-27.873-27.832c-15.36 0-27.832 12.452-27.832 27.832s12.472 27.832 27.832 27.832zM351.949 598.098c15.401 0 27.873-12.472 27.873-27.873 0-15.38-12.472-27.853-27.873-27.853-15.36 0-27.832 12.472-27.832 27.853-0.020 15.38 12.472 27.873 27.832 27.873zM264.438 753.213c15.38 0 27.853-12.452 27.853-27.832s-12.472-27.853-27.853-27.853-27.853 12.472-27.853 27.853 12.472 27.832 27.853 27.832zM264.438 653.763c15.38 0 27.853-12.452 27.853-27.853 0-15.36-12.472-27.812-27.853-27.812s-27.853 12.452-27.853 27.812c0 15.401 12.472 27.853 27.853 27.853zM264.438 554.312c15.38 0 27.853-12.472 27.853-27.853s-12.472-27.832-27.853-27.832-27.853 12.452-27.853 27.832 12.472 27.853 27.853 27.853zM176.947 697.508c15.38 0 27.853-12.452 27.853-27.832s-12.472-27.832-27.853-27.832c-15.401 0-27.853 12.452-27.853 27.832s12.452 27.832 27.853 27.832zM176.947 598.098c15.38 0 27.853-12.472 27.853-27.873 0-15.38-12.472-27.853-27.853-27.853-15.401 0-27.853 12.472-27.853 27.853-0.020 15.38 12.452 27.873 27.853 27.873zM623.985 463.872c89.518 0 162.058 72.561 162.058 162.038 0 89.498-72.54 162.038-162.058 162.038-89.477 0-162.038-72.54-162.038-162.038 0-89.477 72.561-162.038 162.038-162.038zM711.475 697.508c15.401 0 27.853-12.452 27.853-27.832s-12.452-27.832-27.853-27.832c-15.38 0-27.832 12.452-27.832 27.832s12.452 27.832 27.832 27.832zM711.475 598.098c15.401 0 27.853-12.472 27.853-27.873 0-15.38-12.452-27.853-27.853-27.853-15.38 0-27.832 12.472-27.832 27.853s12.452 27.873 27.832 27.873zM623.985 753.213c15.401 0 27.853-12.452 27.853-27.832s-12.452-27.853-27.853-27.853c-15.38 0-27.832 12.472-27.832 27.853s12.452 27.832 27.832 27.832zM623.985 653.763c15.401 0 27.853-12.452 27.853-27.853 0-15.36-12.452-27.812-27.853-27.812-15.38 0-27.832 12.452-27.832 27.812-0.020 15.401 12.452 27.853 27.832 27.853zM623.985 554.312c15.401 0 27.853-12.472 27.853-27.853s-12.452-27.832-27.853-27.832c-15.38 0-27.832 12.452-27.832 27.832s12.452 27.853 27.832 27.853zM536.474 697.508c15.38 0 27.853-12.452 27.853-27.832s-12.472-27.832-27.853-27.832-27.853 12.452-27.853 27.832 12.472 27.832 27.853 27.832zM536.474 598.098c15.38 0 27.853-12.472 27.853-27.873 0-15.38-12.472-27.853-27.853-27.853s-27.853 12.472-27.853 27.853c0 15.38 12.472 27.873 27.853 27.873z" />
<glyph unicode="&#xe94b;" glyph-name="mug" d="M659.784 370.872c-1.27 0-2.478-0.143-3.727-0.205v59.269h-413.757v-325.038c0-36.741 29.757-66.499 66.519-66.499h280.719c36.762 0 66.519 29.757 66.519 66.499v22.323c1.249 0 2.437-0.164 3.727-0.164 67.195 0 121.917 54.682 121.917 121.897 0 67.236-54.723 121.917-121.917 121.917zM659.784 156.611c-1.27 0-2.478 0.143-3.727 0.184v184.34c1.249 0.020 2.437 0.184 3.727 0.184 50.913 0 92.324-41.452 92.324-92.365 0-50.934-41.411-92.344-92.324-92.344zM477.553 760.197c0 0 86.487-101.97-9.38-181.064-29.839-24.637-48.005-59.412-12.124-124.723 0 0-15.892 47.657 61.87 134.083 36.987 41.083 66.376 72.806-40.366 171.704zM412.365 551.813c0 0 86.548 101.97-9.277 181.105-29.901 24.617-48.067 59.372-12.186 124.682 0 0-15.872-47.677 61.911-134.103 36.925-41.042 66.335-72.786-40.448-171.684z" />
<glyph unicode="&#xe94c;" glyph-name="plug" d="M739.328 697.344h-20.603v98.427c0 34.079-27.75 61.829-61.87 61.829h-41.677c-34.079 0-61.809-27.73-61.809-61.829v-98.427h-82.76v98.427c0 34.079-27.709 61.829-61.788 61.829h-41.697c-34.099 0-61.87-27.73-61.87-61.829v-98.427h-20.562c-32.358 0-56.73-30.863-56.73-71.762v-156.037c0-100.106 64.901-185.324 154.849-215.798v-118.743c0-53.309 43.315-96.625 96.584-96.625h65.167c53.309 0 96.625 43.315 96.625 96.625v118.743c89.948 30.495 154.849 115.692 154.849 215.798v156.037c-0.020 40.899-24.392 71.762-56.709 71.762zM611.082 795.771c0 2.253 1.823 4.116 4.096 4.116h41.677c2.273 0 4.157-1.864 4.157-4.116v-98.427h-49.93v98.427zM362.988 795.771c0 2.253 1.843 4.116 4.137 4.116h41.697c2.253 0 4.076-1.864 4.076-4.116v-98.427h-49.93v98.427zM718.725 495.186h-413.471v124.867h413.45v-124.867zM544.563 128.573h-65.167c-3.543 0-6.41 2.888-6.41 6.431v106.742h78.049v-106.742c-0.020-3.564-2.888-6.431-6.472-6.431zM568.218 319.058h-112.435c-77.722 0-141.865 59.228-149.688 134.881h411.791c-7.823-75.674-71.946-134.881-149.668-134.881z" />
<glyph unicode="&#xe94d;" glyph-name="plus" d="M387.666 857.58h248.689v-819.159h-248.689v819.159zM102.4 572.334h819.2v-248.689h-819.2v248.689z" />
<glyph unicode="&#xe94e;" glyph-name="printer" d="M102.4 360.468v-160.317c0-22.63 18.473-41.062 41.083-41.062h140.39v117.289h472.719v-117.289h123.884c22.651 0 41.124 18.412 41.124 41.062v160.317h-819.2zM326.062 800.645h371.896v-279.818h-371.896v279.818zM334.234 225.997h371.917v-130.642h-371.917v130.642zM880.476 629.002h-132.137v-158.536h-472.658v158.536h-132.198c-22.61 0-41.083-18.371-41.083-41.124v-160.236h819.2v160.236c0 22.753-18.452 41.124-41.124 41.124zM834.99 482.529c-15.032 0-27.177 12.186-27.177 27.116 0 14.971 12.145 27.156 27.177 27.156 14.93 0 27.095-12.186 27.095-27.156 0-14.93-12.186-27.116-27.095-27.116zM834.99 545.894c-15.032 0-27.177 12.145-27.177 27.136 0 14.95 12.145 27.075 27.177 27.075 14.93 0 27.095-12.124 27.095-27.075 0-14.991-12.186-27.136-27.095-27.136z" />
</font>
</defs>
</svg>
