<?xml version="1.0" encoding="UTF-8"?>
<svg width="281.211" height="29.139" 
viewBox="0 0 281.211 29.139" 
preserveAspectRatio="xMinYMin"
xmlns:xlink="http://www.w3.org/1999/xlink"
xmlns="http://www.w3.org/2000/svg">
<!-- Generated by PQINA - https://pqina.nl/ -->
<title></title>
<g transform="rotate(NaN 140.6055 14.5695) translate(140.6055 14.5695) scale(NaN) translate(-140.6055 -14.5695) translate(0 0)">
<g transform="scale(1 1) translate(0 0)">
<svg id="Grupo_3" data-name="Grupo 3" xmlns="http://www.w3.org/2000/svg" xmlns:xlink="http://www.w3.org/1999/xlink" viewBox="0 0 281.211 29.139" width="281.211" height="29.139" style="overflow: visible;">
  <defs>
    <clipPath id="clip-path">
      <rect id="Rectángulo_1" data-name="Rectángulo 1" width="281.211" height="29.139" fill="none"></rect>
    </clipPath>
  </defs>
  <path id="Trazado_1" data-name="Trazado 1" d="M164.531,8.98V1.008H138.062V8.98h7.729V29.344H156.8V8.98Z" transform="translate(-81.304 -0.606)" fill="#57595a"></path>
  <path id="Trazado_2" data-name="Trazado 2" d="M83.767,1.007H73.5L63.248,29.344H73.512l5.7-15.759,5.705,15.759H95.182L84.927,1.007Z" transform="translate(-38.044 -0.606)" fill="#57595a"></path>
  <path id="Trazado_3" data-name="Trazado 3" d="M219.711,1.007H208.287L198.033,29.344H208.3L214,13.585l5.7,15.759h10.265Z" transform="translate(-116.564 -0.606)" fill="#57595a"></path>
  <g id="Grupo_2" data-name="Grupo 2">
    <g id="Grupo_1" data-name="Grupo 1" clip-path="url(#clip-path)">
      <path id="Trazado_4" data-name="Trazado 4" d="M13.066,1.007H0v10.3a.828.828,0,0,0,.827.824H7.146a.828.828,0,0,0,.826-.824V8.974h5.094a6.188,6.188,0,0,1,0,12.376H0v7.97H13.066a14.157,14.157,0,1,0,0-28.313" transform="translate(0 -0.594)" fill="#57595a"></path>
      <path id="Trazado_5" data-name="Trazado 5" d="M302.083,21.776A4.705,4.705,0,0,0,300.352,18a15.892,15.892,0,0,0-6.029-2.588,19.162,19.162,0,0,1-7.038-3.041,6.037,6.037,0,0,1-2.4-5.033,6.371,6.371,0,0,1,2.676-5.29A11.029,11.029,0,0,1,294.443,0,10.132,10.132,0,0,1,301.5,2.431a7.484,7.484,0,0,1,2.6,5.933l-.058.116h-2.14A6.006,6.006,0,0,0,299.9,3.82a7.779,7.779,0,0,0-5.456-1.835A8.353,8.353,0,0,0,289.128,3.5a4.629,4.629,0,0,0-1.92,3.773,4.406,4.406,0,0,0,1.771,3.57,16.451,16.451,0,0,0,6.107,2.52,17.659,17.659,0,0,1,6.946,3.15,6.469,6.469,0,0,1,2.388,5.236,6.314,6.314,0,0,1-2.77,5.385,11.794,11.794,0,0,1-7.071,2,12.917,12.917,0,0,1-7.4-2.133,6.794,6.794,0,0,1-3.061-6.211l.037-.122h2.14a5.431,5.431,0,0,0,2.469,4.9,10.592,10.592,0,0,0,5.815,1.585,9.188,9.188,0,0,0,5.439-1.477,4.585,4.585,0,0,0,2.066-3.9" transform="translate(-167.659)" fill="#57595a"></path>
      <path id="Trazado_6" data-name="Trazado 6" d="M362.8,15.611H349.164V27.336h15.62V29.32H346.851V1.007h17.835V2.992H349.164V13.626H362.8Z" transform="translate(-204.682 -0.594)" fill="#57595a"></path>
      <path id="Trazado_7" data-name="Trazado 7" d="M418.782,15.611H405.147V27.336h15.616V29.32H402.83V1.007h17.835V2.992H405.147V13.626h13.635Z" transform="translate(-237.716 -0.594)" fill="#57595a"></path>
      <path id="Trazado_8" data-name="Trazado 8" d="M465.03,16.018h-3.888v13.3h-2.317V1.008h2.317V14.04h3.871L476.156,1.008h2.624l.037.1L467.11,14.941l12.541,14.285-.034.1h-2.76Z" transform="translate(-270.76 -0.595)" fill="#57595a"></path>
      <path id="Trazado_9" data-name="Trazado 9" d="M536.847,15.611H523.208V27.336h15.617V29.32H520.9V1.007H538.73V2.992H523.208V13.626h13.639Z" transform="translate(-307.388 -0.594)" fill="#57595a"></path>
      <path id="Trazado_10" data-name="Trazado 10" d="M579.059,16.556V29.351h-2.316V1.058h9.584q4.557,0,6.987,1.991a7.092,7.092,0,0,1,2.429,5.825,6.651,6.651,0,0,1-1.3,4.037,7.374,7.374,0,0,1-3.675,2.594,6.143,6.143,0,0,1,3.78,2.364,7.419,7.419,0,0,1,1.158,4.267v2.669a8.309,8.309,0,0,0,.312,2.371,3.685,3.685,0,0,0,1.03,1.707v.468h-2.371a3.859,3.859,0,0,1-1.012-1.958,11.824,11.824,0,0,1-.294-2.628V22.178a5.233,5.233,0,0,0-1.68-4.112,6.772,6.772,0,0,0-4.7-1.51Zm0-1.985h6.98q3.825,0,5.6-1.544a5.256,5.256,0,0,0,1.771-4.172,5.362,5.362,0,0,0-1.764-4.308,8.015,8.015,0,0,0-5.32-1.51h-7.268Z" transform="translate(-340.344 -0.624)" fill="#57595a"></path>
      <path id="Trazado_11" data-name="Trazado 11" d="M654.5,21.776A4.718,4.718,0,0,0,652.765,18a15.907,15.907,0,0,0-6.031-2.588,19.232,19.232,0,0,1-7.042-3.041A6.048,6.048,0,0,1,637.3,7.336a6.361,6.361,0,0,1,2.675-5.29A11.019,11.019,0,0,1,646.852,0a10.109,10.109,0,0,1,7.058,2.431,7.477,7.477,0,0,1,2.609,5.933l-.058.116H654.32a6.007,6.007,0,0,0-2.011-4.66,7.786,7.786,0,0,0-5.456-1.835,8.386,8.386,0,0,0-5.32,1.517,4.635,4.635,0,0,0-1.91,3.773,4.407,4.407,0,0,0,1.764,3.57,16.529,16.529,0,0,0,6.114,2.52,17.7,17.7,0,0,1,6.945,3.15,6.48,6.48,0,0,1,2.388,5.236,6.313,6.313,0,0,1-2.777,5.385,11.774,11.774,0,0,1-7.069,2,12.906,12.906,0,0,1-7.4-2.133,6.8,6.8,0,0,1-3.061-6.211l.033-.122h2.148a5.425,5.425,0,0,0,2.469,4.9,10.572,10.572,0,0,0,5.811,1.585,9.218,9.218,0,0,0,5.443-1.477,4.6,4.6,0,0,0,2.069-3.9" transform="translate(-375.622)" fill="#57595a"></path>
    </g>
  </g>
</svg>
</g>
</g>
</svg>